<svg xmlns="http://www.w3.org/2000/svg" width="480.061" height="439.836" viewBox="0 0 480.061 439.836"><defs><style>.a{fill:#2b8e91;}</style></defs><path class="a" d="M361.451,31.771q-2.161-2.037-4.416-3.98C324.414-.158,272.024-7.981,230.748,8.692,205.906,18.728,185.3,36.528,159.205,43.633,130.861,51.351,98.217,45.8,72.565,58.984,38.95,76.262,22.875,117.439,30.072,149.97c4.12,18.621,11.825,34.452,9.365,53.771-2.5,19.62-14.529,37.082-23.464,54.771C3.072,284.052-4.3,312.875,2.7,340.166a79.1,79.1,0,0,0,40.312,50.1c23.762,12.071,58.349,13.926,85.2,15.156,34.9,1.6,70.086-.169,104.671,4.3,48.548,6.268,93.912,13.7,140.33-6.585,21.436-9.369,42.039-25.135,46.122-46.774,1.7-9,.4-18.429,3.111-27.218,4.475-14.489,18.739-24.3,27.338-37.088a53.155,53.155,0,0,0,8.171-39.579c-1.723-8.821-5.7-17.123-8.063-25.815-9.035-33.237,11.475-66.5,3.373-100.02-3.785-15.659-13.8-30.076-27.865-40.117-6.4-4.572-13.567-8.236-20.079-12.684C388.108,62.082,376.242,45.719,361.451,31.771Z" transform="translate(0 24.017) rotate(-3)"/></svg>