<svg xmlns="http://www.w3.org/2000/svg" width="282.313" height="71.066" viewBox="0 0 282.313 71.066"><defs><style>.a,.g{fill:#00a7c5;}.a,.b,.c,.d{fill-rule:evenodd;}.b{fill:#a6ce39;}.c{fill:#fff;}.d{fill:#56514a;}.e{fill:#007bb2;}.f{fill:#0086b8;}</style></defs><g transform="translate(-0.002 -1.997)"><path class="a" d="M26.291,18.041l1.594-.508a2.463,2.463,0,0,1,3.087,1.594L34.254,29.4a2.463,2.463,0,0,1-1.594,3.087L31.065,33A2.463,2.463,0,0,1,27.978,31.4L24.7,21.129a2.469,2.469,0,0,1,1.594-3.087" transform="translate(-13.723 -8.609)"/><path class="a" d="M74.318,2.621l1.594-.508A2.463,2.463,0,0,1,79,3.708l3.282,10.274a2.463,2.463,0,0,1-1.594,3.087l-1.594.508a2.463,2.463,0,0,1-3.087-1.594L72.723,5.709a2.463,2.463,0,0,1,1.594-3.087" transform="translate(-40.536 0)"/><path class="b" d="M6.8,19.3l2.438-.777,2.5,7.809a5.111,5.111,0,0,0,6.413,3.308l1.59-.508a5.111,5.111,0,0,0,3.308-6.413l-2.5-7.809,9.911-3.162,2.482,7.778a5.111,5.111,0,0,0,6.413,3.308l1.59-.508a5.112,5.112,0,0,0,3.308-6.413L41.776,8.125l2.438-.777A9.808,9.808,0,0,1,56.5,13.686L68.45,51.1a9.807,9.807,0,0,1-6.343,12.288L24.692,75.332A9.808,9.808,0,0,1,12.4,68.994L.465,31.583A9.8,9.8,0,0,1,6.8,19.3" transform="translate(0 -2.73)"/><path class="c" d="M66.179,45.471l7.747,24.262.088.278a7.634,7.634,0,0,1-5.2,9.417L31.586,91.314a7.636,7.636,0,0,1-9.7-4.664l-.088-.278L14.06,62.109l-.088-.278a7.634,7.634,0,0,1,5.2-9.417L56.4,40.528a7.636,7.636,0,0,1,9.7,4.664Z" transform="translate(-7.615 -21.295)"/><path class="a" d="M102.806,52.585l1.02,3.2.013.035a1,1,0,0,1-.685,1.241l-4.907,1.568a1.007,1.007,0,0,1-1.276-.614l-.013-.035-1.02-3.2-.013-.035a1,1,0,0,1,.685-1.241l4.907-1.568a1.007,1.007,0,0,1,1.276.614Z" transform="translate(-53.53 -27.852)"/><path class="a" d="M71.031,62.729l1.02,3.2.013.035A1,1,0,0,1,71.38,67.2l-4.912,1.568a1,1,0,0,1-1.276-.614l-.013-.035-1.02-3.2-.013-.04a1,1,0,0,1,.685-1.241l4.907-1.568a1.007,1.007,0,0,1,1.276.614Z" transform="translate(-35.787 -33.514)"/><path class="a" d="M108.966,71.865l1.02,3.2L110,75.1a1,1,0,0,1-.685,1.241l-4.907,1.568a1.007,1.007,0,0,1-1.276-.614l-.013-.035-1.02-3.2-.013-.035a1,1,0,0,1,.685-1.241l4.907-1.568a1.007,1.007,0,0,1,1.276.614Z" transform="translate(-56.97 -38.617)"/><path class="d" d="M77.186,82.015l1.02,3.2.013.035a1,1,0,0,1-.685,1.241l-4.907,1.568a1,1,0,0,1-1.276-.614l-.013-.035-1.02-3.2-.013-.035a1,1,0,0,1,.685-1.241L75.9,81.365a1.007,1.007,0,0,1,1.276.614Z" transform="translate(-39.226 -44.284)"/><path class="a" d="M45.416,92.165l1.02,3.2.013.035a1,1,0,0,1-.685,1.241l-4.907,1.568a1.007,1.007,0,0,1-1.276-.614l-.013-.035-1.02-3.2-.013-.035a1,1,0,0,1,.685-1.241l4.907-1.568a1,1,0,0,1,1.276.614Z" transform="translate(-21.489 -49.95)"/><path class="a" d="M115.121,91.149l1.02,3.2.013.035a1,1,0,0,1-.685,1.241l-4.907,1.568a1.007,1.007,0,0,1-1.276-.614l-.013-.035-1.025-3.2-.013-.035a1,1,0,0,1,.685-1.241l4.907-1.568a1.007,1.007,0,0,1,1.276.614Z" transform="translate(-60.403 -49.381)"/><path class="a" d="M83.346,101.295l1.02,3.2.013.035a1,1,0,0,1-.685,1.241l-4.907,1.568a1,1,0,0,1-1.276-.614l-.013-.035-1.02-3.2-.013-.035a1,1,0,0,1,.685-1.241l4.907-1.568a1.007,1.007,0,0,1,1.276.614Z" transform="translate(-42.666 -55.048)"/><path class="a" d="M51.566,111.445l1.02,3.2.013.035a1,1,0,0,1-.685,1.241l-4.907,1.568a1.007,1.007,0,0,1-1.276-.614l-.013-.035-1.02-3.2-.013-.035a1,1,0,0,1,.685-1.241l4.907-1.568a1.007,1.007,0,0,1,1.276.614Z" transform="translate(-24.922 -60.715)"/><path class="a" d="M121.2,110.165l1.02,3.2.013.035a1,1,0,0,1-.685,1.241l-4.907,1.568a1.007,1.007,0,0,1-1.276-.614l-.013-.035-1.02-3.2-.013-.035a1,1,0,0,1,.685-1.241l4.907-1.568a1.007,1.007,0,0,1,1.276.614Z" transform="translate(-63.798 -60)"/><path class="a" d="M89.416,120.3l1.02,3.2.013.035a1,1,0,0,1-.685,1.241l-4.907,1.568a1.007,1.007,0,0,1-1.276-.614l-.013-.035-1.02-3.2-.013-.035a1,1,0,0,1,.685-1.241l4.907-1.568a1.007,1.007,0,0,1,1.276.614Z" transform="translate(-46.055 -65.661)"/><path class="a" d="M57.636,130.455l1.02,3.2.013.035a1,1,0,0,1-.685,1.241L53.078,136.5a1.007,1.007,0,0,1-1.276-.614l-.013-.035-1.02-3.2-.013-.035a1,1,0,0,1,.685-1.241l4.907-1.568a1.007,1.007,0,0,1,1.276.614Z" transform="translate(-28.311 -71.328)"/><path class="a" d="M39.256,72.875l1.02,3.2.013.035a1,1,0,0,1-.685,1.241L34.7,78.917a1.007,1.007,0,0,1-1.276-.614l-.013-.035-1.02-3.2-.013-.035a1,1,0,0,1,.685-1.241l4.907-1.568a1.007,1.007,0,0,1,1.276.614Z" transform="translate(-18.05 -39.181)"/><path class="e" d="M155.963,69.416a52.319,52.319,0,0,1-7.389-.106q-3.982-.3-3.984-5.062V33.86h3.732a3.3,3.3,0,0,1,2.381,1.034,3.366,3.366,0,0,1,1.034,2.478v4.638h4.231v1.453a3.332,3.332,0,0,1-1.034,2.531,3.445,3.445,0,0,1-2.478.989h-.724V62.265c0,1.175.689,1.753,2.063,1.753h2.169Z" transform="translate(-80.725 -17.789)"/><path class="f" d="M188.451,77.715a12.784,12.784,0,0,1-4.6,1.4,42.378,42.378,0,0,1-4.293.256,10.825,10.825,0,0,1-6.519-2.019q-2.789-2.014-2.8-6.665c0-2.9.848-4.965,2.54-6.21A14.553,14.553,0,0,1,179.246,62a5.838,5.838,0,0,0,1.241-.15,16.545,16.545,0,0,1,1.656-.265c3.034-.406,4.549-1.307,4.549-2.681a1.959,1.959,0,0,0-1.6-2.019,10.653,10.653,0,0,0-2.946-.468,7.373,7.373,0,0,0-2.584.424,2.838,2.838,0,0,0-1.647,1.586h-6.921a7.991,7.991,0,0,1,2.893-5.291q2.789-2.378,7.955-2.381c3.865,0,6.753.654,8.688,1.966a6.631,6.631,0,0,1,3,5.786v9.4a11.915,11.915,0,0,1-1.5,6.462,9.288,9.288,0,0,1-3.578,3.352M186.8,65.034a19.285,19.285,0,0,1-4.037,1.338c-1.586.345-2.381.521-2.381.521a6.232,6.232,0,0,0-2.7,1.338,4.181,4.181,0,0,0-.724,2.275,3.32,3.32,0,0,0,.936,2.478,3.892,3.892,0,0,0,2.69.83,5.729,5.729,0,0,0,6.215-6.2V65.034Z" transform="translate(-95.046 -27.219)"/><path class="g" d="M230.861,65.308q0,7.129,4.134,7.9t6.1-1.9a7.82,7.82,0,0,0,1.352-3.573,14.876,14.876,0,0,0,.044-4.806,9.558,9.558,0,0,0-1.7-4.231,4.528,4.528,0,0,0-3.922-1.86c-2.345,0-3.935.866-4.753,2.584a13.316,13.316,0,0,0-1.25,5.888m11.8,11.9V75.454a7.979,7.979,0,0,1-5.018,3.617,10.324,10.324,0,0,1-6.263-.521,11.653,11.653,0,0,1-5.336-4.594,15.787,15.787,0,0,1-2.222-8.838q0-6.413,2.946-10.388t9.47-3.98a16.906,16.906,0,0,1,9.214,2.69q4.247,2.683,4.24,9.92V77.927q0,7.235-4.24,9.867a17.174,17.174,0,0,1-9.209,2.637q-9.5,0-11.771-8.891h7.54a5.764,5.764,0,0,0,5.945,2.637,5.625,5.625,0,0,0,3.1-2.019A8.3,8.3,0,0,0,242.658,77.207Z" transform="translate(-124.96 -27.219)"/><path class="g" d="M291.079,62.271h10.539a6.618,6.618,0,0,0-1.444-4.117,4.95,4.95,0,0,0-3.821-1.435,5.057,5.057,0,0,0-3.723,1.435,5.875,5.875,0,0,0-1.55,4.117m12.4,8.1h5.168a11.287,11.287,0,0,1-4.337,6.612,13.151,13.151,0,0,1-8.061,2.381q-5.89,0-9.209-3.829-3.319-3.717-3.317-10.645,0-6.612,3.211-10.327,3.319-3.823,9.209-3.829,6.2,0,9.611,3.715,3.306,3.81,3.308,10.627V66.2a1.75,1.75,0,0,1-.106.724H291.079a7.194,7.194,0,0,0,1.55,4.788,4.856,4.856,0,0,0,4.028,1.665,5.826,5.826,0,0,0,3-.733,1.318,1.318,0,0,0,.565-.362c.177-.168.362-.362.574-.574a2.239,2.239,0,0,1,.769-.83A3.157,3.157,0,0,1,303.477,70.367Z" transform="translate(-158.403 -27.208)"/><path class="g" d="M367.63,78.846H364a3.374,3.374,0,0,1-3.52-3.52V61.271A4.268,4.268,0,0,0,359,57.654a5.4,5.4,0,0,0-3.352-1.14,5.166,5.166,0,0,0-3.291,1.14,4.327,4.327,0,0,0-1.444,3.617V78.846H343.66V62.733c0-4.682,1.228-7.822,3.67-9.4a16.04,16.04,0,0,1,8.114-2.584,15.625,15.625,0,0,1,8.37,2.372q3.823,2.378,3.821,9.611V78.846Z" transform="translate(-191.868 -27.219)"/><path class="g" d="M406.132,55.347a10.865,10.865,0,0,0,1.55,6.316,5.148,5.148,0,0,0,4.452,2.169,5.05,5.05,0,0,0,4.346-2.169,11.452,11.452,0,0,0,1.444-6.316,10.012,10.012,0,0,0-1.55-5.9,5.389,5.389,0,0,0-4.452-2.072,4.939,4.939,0,0,0-4.24,2.169,9.563,9.563,0,0,0-1.55,5.8m11.8-21.727h3.52a3.319,3.319,0,0,1,2.487,1.087,3.443,3.443,0,0,1,1.034,2.434V57.3q0,7.341-4.24,9.929a17.444,17.444,0,0,1-9.218,2.584,16.119,16.119,0,0,1-5.274-.883,8.64,8.64,0,0,1-4.143-2.84q-3-3.823-3-10.433,0-6.519,3-10.441a10.1,10.1,0,0,1,12.522-2.995,9.886,9.886,0,0,1,3.317,3.2V33.62Z" transform="translate(-222.821 -17.655)"/><path class="g" d="M477.2,77.715a12.784,12.784,0,0,1-4.6,1.4,42.378,42.378,0,0,1-4.293.256,10.825,10.825,0,0,1-6.519-2.019q-2.789-2.014-2.8-6.665c0-2.9.848-4.965,2.54-6.21A14.553,14.553,0,0,1,468,62a5.838,5.838,0,0,0,1.241-.15,16.544,16.544,0,0,1,1.656-.265c3.034-.406,4.549-1.307,4.549-2.681a1.959,1.959,0,0,0-1.6-2.019,10.653,10.653,0,0,0-2.946-.468,7.373,7.373,0,0,0-2.584.424,2.826,2.826,0,0,0-1.647,1.586h-6.921a7.991,7.991,0,0,1,2.893-5.291q2.789-2.378,7.955-2.381,5.791,0,8.688,1.966a6.631,6.631,0,0,1,3,5.786v9.4a11.915,11.915,0,0,1-1.5,6.462,9.288,9.288,0,0,1-3.578,3.352m-1.648-12.681a19.284,19.284,0,0,1-4.037,1.338c-1.586.345-2.381.521-2.381.521a6.232,6.232,0,0,0-2.7,1.338,4.182,4.182,0,0,0-.724,2.275,3.32,3.32,0,0,0,.936,2.478,3.892,3.892,0,0,0,2.69.83,5.729,5.729,0,0,0,6.215-6.2Z" transform="translate(-256.259 -27.219)"/><path class="g" d="M519.627,55.347a10.866,10.866,0,0,0,1.55,6.316,5.148,5.148,0,0,0,4.452,2.169,5.05,5.05,0,0,0,4.346-2.169,11.453,11.453,0,0,0,1.444-6.316,10.012,10.012,0,0,0-1.55-5.9,5.4,5.4,0,0,0-4.452-2.072,4.939,4.939,0,0,0-4.24,2.169,9.562,9.562,0,0,0-1.55,5.8m11.8-21.727h3.52a3.319,3.319,0,0,1,2.487,1.087,3.443,3.443,0,0,1,1.034,2.434V57.3q0,7.341-4.24,9.929a17.44,17.44,0,0,1-9.214,2.584,16.119,16.119,0,0,1-5.274-.883,8.641,8.641,0,0,1-4.143-2.84q-3-3.823-3-10.433,0-6.519,3-10.441a10.1,10.1,0,0,1,12.522-2.995,9.886,9.886,0,0,1,3.317,3.2V33.62Z" transform="translate(-286.19 -17.655)"/><path class="g" d="M581.51,58.126q-2.167,2.378-1.957,7.08c.133,3.132.724,5.318,1.753,6.559a4.6,4.6,0,0,0,2.169,1.391,4.927,4.927,0,0,0,3.149.106,5.3,5.3,0,0,0,2.849-2.328c.822-1.237,1.268-3.238,1.338-5.989a10.461,10.461,0,0,0-1.193-5.583,5.361,5.361,0,0,0-2.734-2.381,5.041,5.041,0,0,0-3.105-.053,5.654,5.654,0,0,0-2.27,1.2m-4.947,18.193a10.31,10.31,0,0,1-3.105-5.018,23.078,23.078,0,0,1-.928-6.559,20.61,20.61,0,0,1,.777-5.583,11.482,11.482,0,0,1,2.425-4.647,10.748,10.748,0,0,1,6.921-3.67,15.9,15.9,0,0,1,7.654.671,10.587,10.587,0,0,1,5.786,5.38,17.059,17.059,0,0,1,1.753,7.955,19.5,19.5,0,0,1-.724,5.68,14.61,14.61,0,0,1-1.86,4.037,10.345,10.345,0,0,1-6.307,4.231,14.12,14.12,0,0,1-6.868.159A12.146,12.146,0,0,1,576.563,76.319Z" transform="translate(-319.649 -27.17)"/><path class="b" d="M600.809,75.36h14.218a1.753,1.753,0,0,1,1.749,1.749v3.463a1.753,1.753,0,0,1-1.749,1.749H600.809a1.753,1.753,0,0,1-1.749-1.749V77.109a1.759,1.759,0,0,1,1.749-1.749" transform="translate(-334.461 -40.959)"/></g></svg>