<svg xmlns="http://www.w3.org/2000/svg" width="199.518" height="50.595" viewBox="0 0 199.518 50.595"><defs><style>.a{fill:#999189;}.a,.c,.d,.g{fill-rule:evenodd;}.b,.e{fill:#d1d1d1;}.b{stroke:rgba(0,0,0,0);stroke-miterlimit:10;}.c{fill:#e3e3e3;}.d{fill:#aca7a5;}.f{fill:#fff;}.g{fill:#ebeae6;}</style></defs><g transform="translate(60.52 -82)"><path class="a" d="M73.814,2.44l1.122-.358A1.736,1.736,0,0,1,77.113,3.2l2.312,7.242A1.736,1.736,0,0,1,78.3,12.622l-1.123.359A1.736,1.736,0,0,1,75,11.858L72.691,4.616A1.736,1.736,0,0,1,73.814,2.44" transform="translate(-110.003 80)"/><path class="b" d="M15.327,48.575a6.985,6.985,0,0,1-4.035-1.3A6.822,6.822,0,0,1,8.747,43.78L.327,17.409A6.913,6.913,0,0,1,4.8,8.746L6.516,8.2,8.275,13.7a3.595,3.595,0,0,0,4.519,2.332l1.122-.358a3.6,3.6,0,0,0,2.332-4.52L14.49,5.651l6.985-2.23L23.226,8.9a3.6,3.6,0,0,0,4.519,2.332l1.122-.359A3.6,3.6,0,0,0,31.2,6.358L29.448.875l1.72-.549A6.837,6.837,0,0,1,33.251,0a6.986,6.986,0,0,1,4.035,1.3A6.82,6.82,0,0,1,39.83,4.8l8.42,26.372a6.9,6.9,0,0,1-4.469,8.663L17.41,48.249A6.834,6.834,0,0,1,15.327,48.575ZM36.136,10.353a5.751,5.751,0,0,0-1.75.274L8.144,19.005a5.372,5.372,0,0,0-3.663,6.638l.062.2L10,42.943l.062.2A5.247,5.247,0,0,0,15.149,46.7a5.764,5.764,0,0,0,1.75-.274l26.241-8.379A5.372,5.372,0,0,0,46.8,31.408l-.062-.2-5.461-17.1-.063-.2A5.245,5.245,0,0,0,36.136,10.353Z" transform="translate(-60.002 83.521)"/><path class="c" d="M100.764,52.374l.72,2.255.008.026a.709.709,0,0,1-.483.875l-3.46,1.1a.71.71,0,0,1-.9-.433l-.008-.026-.72-2.255-.008-.026a.71.71,0,0,1,.483-.875l3.46-1.1a.709.709,0,0,1,.9.433Z" transform="translate(-126.03 45.651)"/><path class="c" d="M68.987,62.52l.72,2.255.008.026a.709.709,0,0,1-.483.875l-3.46,1.1a.71.71,0,0,1-.9-.433l-.008-.026-.72-2.255-.008-.026a.709.709,0,0,1,.483-.875l3.459-1.1a.709.709,0,0,1,.9.433Z" transform="translate(-104.147 38.663)"/><path class="c" d="M106.921,71.657l.72,2.255.008.026a.709.709,0,0,1-.483.875l-3.46,1.1a.709.709,0,0,1-.9-.433l-.008-.026-.72-2.255-.008-.026a.709.709,0,0,1,.483-.875l3.46-1.1a.709.709,0,0,1,.9.433Z" transform="translate(-130.27 32.371)"/><path class="d" d="M75.144,81.8l.72,2.255.008.026a.709.709,0,0,1-.483.875l-3.459,1.1a.71.71,0,0,1-.9-.433l-.008-.026L70.3,83.35l-.008-.026a.71.71,0,0,1,.483-.875l3.46-1.1a.71.71,0,0,1,.9.433Z" transform="translate(-108.387 25.384)"/><path class="e" d="M152.6,58.919a36.974,36.974,0,0,1-5.209-.074c-1.871-.143-2.81-1.337-2.81-3.568V33.855h2.63a2.325,2.325,0,0,1,1.678.727,2.375,2.375,0,0,1,.727,1.747V39.6H152.6v1.026a2.352,2.352,0,0,1-.727,1.784,2.432,2.432,0,0,1-1.747.7h-.51V53.877c0,.827.485,1.237,1.455,1.237H152.6Z" transform="translate(-159.566 58.063)"/><path class="e" d="M183.071,69.755a9.018,9.018,0,0,1-3.245.989,29.96,29.96,0,0,1-3.027.18,7.612,7.612,0,0,1-4.594-1.423q-1.968-1.417-1.971-4.7c0-2.045.6-3.5,1.79-4.376a10.266,10.266,0,0,1,4.557-1.753,4.167,4.167,0,0,0,.876-.106,11.657,11.657,0,0,1,1.169-.186c2.139-.286,3.207-.92,3.207-1.89a1.381,1.381,0,0,0-1.131-1.423,7.511,7.511,0,0,0-2.076-.329,5.206,5.206,0,0,0-1.821.3,2,2,0,0,0-1.163,1.119h-4.88a5.62,5.62,0,0,1,2.039-3.73,8.4,8.4,0,0,1,5.607-1.678q4.084,0,6.123,1.386a4.668,4.668,0,0,1,2.113,4.078v6.627a8.388,8.388,0,0,1-1.057,4.556,6.523,6.523,0,0,1-2.518,2.362m-1.162-8.939a13.738,13.738,0,0,1-2.847.945c-1.119.243-1.678.367-1.678.367a4.366,4.366,0,0,0-1.9.945,2.953,2.953,0,0,0-.51,1.6,2.343,2.343,0,0,0,.659,1.747,2.748,2.748,0,0,0,1.9.584,4.042,4.042,0,0,0,4.382-4.37Z" transform="translate(-177.234 46.431)"/><path class="f" d="M228.786,61.009q0,5.026,2.916,5.57c1.939.366,3.376-.081,4.3-1.343a5.516,5.516,0,0,0,.951-2.518,10.505,10.505,0,0,0,.031-3.388,6.719,6.719,0,0,0-1.2-2.984,3.2,3.2,0,0,0-2.766-1.312,3.355,3.355,0,0,0-3.351,1.821,9.457,9.457,0,0,0-.876,4.153m8.318,8.386V68.158a5.614,5.614,0,0,1-3.537,2.549,7.286,7.286,0,0,1-4.414-.367,8.211,8.211,0,0,1-3.761-3.239,11.116,11.116,0,0,1-1.567-6.229A11.986,11.986,0,0,1,225.9,53.55q2.08-2.807,6.676-2.8a11.924,11.924,0,0,1,6.5,1.9q2.993,1.893,2.99,6.993V69.9q0,5.1-2.99,6.956a12.1,12.1,0,0,1-6.49,1.859q-6.7,0-8.3-6.266H229.6a4.06,4.06,0,0,0,4.19,1.858,3.953,3.953,0,0,0,2.182-1.423A5.9,5.9,0,0,0,237.1,69.395Z" transform="translate(-214.14 46.431)"/><path class="f" d="M288.909,58.877h7.429a4.659,4.659,0,0,0-1.019-2.9,3.493,3.493,0,0,0-2.692-1.013A3.551,3.551,0,0,0,290,55.974a4.151,4.151,0,0,0-1.094,2.9m8.74,5.707h3.643a7.959,7.959,0,0,1-3.058,4.662,9.264,9.264,0,0,1-5.682,1.678,8.135,8.135,0,0,1-6.49-2.7q-2.341-2.62-2.337-7.5a10.769,10.769,0,0,1,2.263-7.279,8.144,8.144,0,0,1,6.49-2.7,8.731,8.731,0,0,1,6.776,2.617q2.331,2.685,2.331,7.491v.8a1.234,1.234,0,0,1-.074.51h-12.6A5.064,5.064,0,0,0,290,65.535a3.427,3.427,0,0,0,2.841,1.175,4.109,4.109,0,0,0,2.114-.516.92.92,0,0,0,.4-.255c.125-.118.255-.255.4-.4a1.581,1.581,0,0,1,.541-.584A2.19,2.19,0,0,1,297.649,64.583Z" transform="translate(-255.391 46.431)"/><path class="f" d="M360.56,70.551H358a2.375,2.375,0,0,1-2.48-2.48V58.162a3,3,0,0,0-1.05-2.549,3.808,3.808,0,0,0-2.362-.8,3.639,3.639,0,0,0-2.319.8,3.054,3.054,0,0,0-1.019,2.549V70.551h-5.11V59.194q0-4.951,2.586-6.627a11.294,11.294,0,0,1,5.719-1.821,11,11,0,0,1,5.9,1.672q2.695,1.678,2.691,6.776Z" transform="translate(-296.668 46.431)"/><path class="f" d="M404.052,48.932a7.639,7.639,0,0,0,1.094,4.451,3.627,3.627,0,0,0,3.14,1.529,3.56,3.56,0,0,0,3.065-1.529,8.074,8.074,0,0,0,1.02-4.451,7.035,7.035,0,0,0-1.094-4.159,3.8,3.8,0,0,0-3.139-1.461,3.483,3.483,0,0,0-2.99,1.529,6.723,6.723,0,0,0-1.094,4.09m8.317-15.317h2.48a2.343,2.343,0,0,1,1.753.765,2.43,2.43,0,0,1,.727,1.716v14.21q0,5.175-2.99,7a12.283,12.283,0,0,1-6.5,1.821,11.385,11.385,0,0,1-3.717-.621,6.1,6.1,0,0,1-2.922-2,11.6,11.6,0,0,1-2.113-7.354,11.8,11.8,0,0,1,2.113-7.36,7.121,7.121,0,0,1,8.827-2.114,6.948,6.948,0,0,1,2.338,2.257Z" transform="translate(-334.839 58.228)"/><path class="f" d="M471.826,69.755a9.017,9.017,0,0,1-3.245.989,29.973,29.973,0,0,1-3.027.18A7.613,7.613,0,0,1,460.96,69.5q-1.968-1.417-1.97-4.7c0-2.045.6-3.5,1.79-4.376a10.265,10.265,0,0,1,4.557-1.753,4.166,4.166,0,0,0,.876-.106,11.664,11.664,0,0,1,1.169-.186c2.138-.286,3.207-.92,3.207-1.89a1.381,1.381,0,0,0-1.131-1.423,7.514,7.514,0,0,0-2.076-.329,5.206,5.206,0,0,0-1.822.3,2,2,0,0,0-1.162,1.119h-4.88a5.62,5.62,0,0,1,2.039-3.73,8.4,8.4,0,0,1,5.607-1.678q4.084,0,6.123,1.386A4.668,4.668,0,0,1,475.4,56.21v6.627a8.394,8.394,0,0,1-1.057,4.556,6.527,6.527,0,0,1-2.518,2.362m-1.162-8.939a13.744,13.744,0,0,1-2.847.945c-1.119.243-1.678.367-1.678.367a4.368,4.368,0,0,0-1.9.945,2.956,2.956,0,0,0-.51,1.6,2.343,2.343,0,0,0,.659,1.747,2.746,2.746,0,0,0,1.9.584,4.042,4.042,0,0,0,4.383-4.37Z" transform="translate(-376.089 46.431)"/><path class="f" d="M517.541,48.932a7.636,7.636,0,0,0,1.094,4.451,3.626,3.626,0,0,0,3.139,1.529,3.56,3.56,0,0,0,3.065-1.529,8.071,8.071,0,0,0,1.02-4.451,7.037,7.037,0,0,0-1.094-4.159,3.8,3.8,0,0,0-3.14-1.461,3.482,3.482,0,0,0-2.99,1.529,6.721,6.721,0,0,0-1.094,4.09m8.317-15.317h2.48a2.342,2.342,0,0,1,1.753.765,2.428,2.428,0,0,1,.727,1.716v14.21q0,5.175-2.99,7a12.283,12.283,0,0,1-6.5,1.821,11.386,11.386,0,0,1-3.717-.621,6.105,6.105,0,0,1-2.922-2,11.6,11.6,0,0,1-2.113-7.354,11.8,11.8,0,0,1,2.113-7.36,7.121,7.121,0,0,1,8.827-2.114,6.947,6.947,0,0,1,2.338,2.257Z" transform="translate(-412.994 58.228)"/><path class="f" d="M578.867,55.92a6.719,6.719,0,0,0-1.38,4.992c.093,2.207.51,3.749,1.237,4.625a3.259,3.259,0,0,0,1.529.982,3.477,3.477,0,0,0,2.219.074,3.728,3.728,0,0,0,2.008-1.641,8.256,8.256,0,0,0,.945-4.221,7.381,7.381,0,0,0-.839-3.935,3.786,3.786,0,0,0-1.927-1.678,3.556,3.556,0,0,0-2.188-.037,3.929,3.929,0,0,0-1.6.839M575.38,68.744a7.244,7.244,0,0,1-2.188-3.537,16.311,16.311,0,0,1-.653-4.625,14.547,14.547,0,0,1,.547-3.935,8.074,8.074,0,0,1,1.709-3.276,7.578,7.578,0,0,1,4.88-2.586,11.227,11.227,0,0,1,5.4.473,7.451,7.451,0,0,1,4.078,3.792,12.042,12.042,0,0,1,1.237,5.607,13.753,13.753,0,0,1-.51,4,10.323,10.323,0,0,1-1.312,2.847,7.3,7.3,0,0,1-4.444,2.984,9.978,9.978,0,0,1-4.843.112A8.526,8.526,0,0,1,575.38,68.744Z" transform="translate(-454.286 46.491)"/><path class="g" d="M600.3,75.356H610.32a1.236,1.236,0,0,1,1.232,1.233v2.441a1.236,1.236,0,0,1-1.232,1.232H600.3a1.236,1.236,0,0,1-1.232-1.232V76.589a1.236,1.236,0,0,1,1.232-1.233" transform="translate(-472.554 29.483)"/><path class="a" d="M25.791,17.852l1.123-.358a1.736,1.736,0,0,1,2.176,1.123L31.4,25.859a1.736,1.736,0,0,1-1.123,2.176l-1.123.359a1.736,1.736,0,0,1-2.176-1.123l-2.312-7.242a1.736,1.736,0,0,1,1.123-2.176" transform="translate(-76.932 69.386)"/><path class="c" d="M43.368,91.95l.72,2.255.009.026a.71.71,0,0,1-.483.875l-3.46,1.1a.71.71,0,0,1-.9-.434l-.008-.026-.72-2.255-.008-.026A.709.709,0,0,1,39,92.6l3.459-1.1a.709.709,0,0,1,.9.433Z" transform="translate(-86.503 18.396)"/><path class="c" d="M113.078,90.941l.72,2.255.008.026a.709.709,0,0,1-.483.875l-3.46,1.1a.709.709,0,0,1-.9-.433l-.008-.026-.72-2.255-.008-.026a.709.709,0,0,1,.483-.875l3.46-1.1a.709.709,0,0,1,.9.433Z" transform="translate(-134.51 19.091)"/><path class="c" d="M81.3,101.087l.72,2.255.008.026a.71.71,0,0,1-.483.875l-3.46,1.1a.71.71,0,0,1-.9-.433l-.008-.026-.72-2.255-.008-.026a.709.709,0,0,1,.483-.875l3.46-1.1a.709.709,0,0,1,.9.433Z" transform="translate(-112.627 12.104)"/><path class="c" d="M49.525,111.233l.72,2.255.008.026a.71.71,0,0,1-.483.875l-3.46,1.1a.71.71,0,0,1-.9-.433l-.008-.026-.72-2.255-.008-.026a.709.709,0,0,1,.483-.875l3.459-1.1a.709.709,0,0,1,.9.433Z" transform="translate(-90.744 5.117)"/><path class="c" d="M119.148,109.952l.72,2.255.008.026a.709.709,0,0,1-.483.875l-3.46,1.1a.709.709,0,0,1-.9-.433l-.008-.026-.72-2.255-.008-.026a.709.709,0,0,1,.483-.875l3.46-1.1a.71.71,0,0,1,.9.433Z" transform="translate(-138.69 5.999)"/><path class="c" d="M87.372,120.1l.72,2.255.008.026a.709.709,0,0,1-.483.875l-3.46,1.1a.71.71,0,0,1-.9-.433l-.008-.026-.72-2.255-.008-.026a.71.71,0,0,1,.483-.875l3.46-1.1a.709.709,0,0,1,.9.433Z" transform="translate(-116.807 -0.989)"/><path class="c" d="M55.6,130.244l.72,2.255.008.026a.71.71,0,0,1-.483.875l-3.46,1.1a.71.71,0,0,1-.9-.434l-.008-.026-.72-2.255-.008-.026a.709.709,0,0,1,.483-.875l3.46-1.1a.71.71,0,0,1,.9.433Z" transform="translate(-94.924 -7.976)"/><path class="c" d="M37.211,72.666l.72,2.255.008.026a.71.71,0,0,1-.483.875L34,76.927a.709.709,0,0,1-.9-.433l-.008-.026-.72-2.255-.008-.026a.709.709,0,0,1,.483-.875l3.46-1.1a.709.709,0,0,1,.9.434Z" transform="translate(-82.264 31.676)"/></g></svg>