<svg xmlns="http://www.w3.org/2000/svg" width="154" height="154" viewBox="0 0 154 154"><defs><style>.a{fill:#fff;}.a,.b{stroke:#1560a0;stroke-width:3px;}.b,.d{fill:none;}.b{stroke-miterlimit:10;}.c{stroke:none;}</style></defs><g transform="translate(-1059 -982)"><g class="a" transform="translate(1059 982)"><circle class="c" cx="77" cy="77" r="77"/><circle class="d" cx="77" cy="77" r="75.5"/></g><g transform="translate(1079.363 1004.344)"><path class="b" d="M59.436,85.633H22.563a8.676,8.676,0,0,1-8.675-8.676V11.888H87.633V57.436" transform="translate(0 0)"/><g transform="translate(28.632 40.084)"><path class="b" d="M40.93,56.221a2.169,2.169,0,1,1-2.169-2.169A2.169,2.169,0,0,1,40.93,56.221Z" transform="translate(-36.153 -54.052)"/><path class="b" d="M60.39,56.221a2.169,2.169,0,1,1-2.169-2.169A2.168,2.168,0,0,1,60.39,56.221Z" transform="translate(-42.6 -54.052)"/><path class="b" d="M79.851,56.221a2.169,2.169,0,1,1-2.169-2.169A2.168,2.168,0,0,1,79.851,56.221Z" transform="translate(-49.047 -54.052)"/><path class="b" d="M99.312,56.221a2.169,2.169,0,1,1-2.169-2.169A2.169,2.169,0,0,1,99.312,56.221Z" transform="translate(-55.494 -54.052)"/><circle class="b" cx="2.169" cy="2.169" r="2.169" transform="translate(0.439 13.014)"/><circle class="b" cx="2.169" cy="2.169" r="2.169" transform="translate(13.453 13.014)"/><circle class="b" cx="2.169" cy="2.169" r="2.169" transform="translate(26.466 13.014)"/><circle class="b" cx="2.169" cy="2.169" r="2.169" transform="translate(39.48 13.014)"/><circle class="b" cx="2.169" cy="2.169" r="2.169" transform="matrix(0.229, -0.973, 0.973, 0.229, 0, 29.812)"/><circle class="b" cx="2.169" cy="2.169" r="2.169" transform="matrix(0.923, -0.385, 0.385, 0.923, 12.785, 27.03)"/><circle class="b" cx="2.169" cy="2.169" r="2.169" transform="matrix(0.229, -0.973, 0.973, 0.229, 26.028, 29.812)"/></g><line class="b" x2="73.745" transform="translate(13.888 24.902)"/><g transform="translate(57.857 55.857)"><circle class="b" cx="19.521" cy="19.521" r="19.521" transform="translate(0 27.606) rotate(-45)"/><path class="b" d="M128.413,114.644H117.678V99.461" transform="translate(-92.24 -84.868)"/></g></g></g></svg>