<svg xmlns="http://www.w3.org/2000/svg" width="154" height="154" viewBox="0 0 154 154"><defs><style>.a{fill:#fff;}.a,.b{stroke:#1560a0;stroke-width:3px;}.b,.d{fill:none;}.b{stroke-linecap:round;stroke-linejoin:round;}.c{stroke:none;}</style></defs><g transform="translate(-687 -982)"><g class="a" transform="translate(687 982)"><circle class="c" cx="77" cy="77" r="77"/><circle class="d" cx="77" cy="77" r="75.5"/></g><g transform="translate(703.345 1002.656)"><g transform="translate(28.568 7.344)"><path class="b" d="M34.186,134.149a7.966,7.966,0,0,0,7.942,7.942H87.8a7.965,7.965,0,0,0,7.942-7.942v-9.927H34.186Z" transform="translate(-34.186 -44.799)"/><path class="b" d="M87.8,7.344H42.128a7.966,7.966,0,0,0-7.942,7.942v7.942H95.738V15.286A7.966,7.966,0,0,0,87.8,7.344Z" transform="translate(-34.186 -7.344)"/><rect class="b" width="61.552" height="63.538" transform="translate(0 15.885)"/><rect class="b" width="3.971" height="0.079" transform="translate(28.791 88.318)"/></g><path class="b" d="M121.021,70.917v41.7a7.965,7.965,0,0,1-7.942,7.942h7.942a13.9,13.9,0,0,0,13.9-13.9V57.018A13.9,13.9,0,0,0,121.021,70.917Z" transform="translate(-30.9 -15.919)"/><g transform="translate(16.655 49.041)"><path class="b" d="M28.568,68.705H22.612a5.957,5.957,0,1,0,0,11.914h5.956Z" transform="translate(-16.655 -68.705)"/><path class="b" d="M28.568,86.237H22.612a5.956,5.956,0,1,0,0,11.913h5.956Z" transform="translate(-16.655 -74.323)"/><path class="b" d="M28.568,103.768H22.612a5.957,5.957,0,1,0,0,11.914h5.956Z" transform="translate(-16.655 -79.941)"/><path class="b" d="M28.568,121.3H22.612a5.956,5.956,0,1,0,0,11.913h5.956Z" transform="translate(-16.655 -85.56)"/></g><path class="b" d="M86.821,67.881H78.878V59.939H66.965v7.942H59.023V79.795h7.942v7.942H78.878V79.795h7.942Z" transform="translate(-13.577 -16.855)"/></g></g></svg>