<svg xmlns="http://www.w3.org/2000/svg" width="314.078" height="239.086" viewBox="0 0 314.078 239.086"><defs><style>.a{fill:#e4f7f7;}.b{fill:#b0d2d6;}.c,.e{fill:#295172;}.d{fill:#214259;}.e{opacity:0.55;}.f{fill:#346391;}.g{fill:#ffdc31;}.h,.i{fill:#ffb92e;}.h{opacity:0.51;}.j{fill:#ff8931;}.k{fill:#9c9e2e;}.l{fill:#d9e539;}.m{fill:#602e4d;}.n{fill:#ffc7ae;}.o{fill:#ed8772;}.p{fill:#f4e44a;opacity:0.21;}.q{fill:#437ba8;}.ab,.ac,.au,.ax,.bh,.bu,.r{fill:#fff;}.r{opacity:0.19;}.s{fill:#e2897a;}.t{fill:#c6dfe5;}.u{fill:#a04050;}.v{fill:#e83452;}.w{fill:#c12546;}.x{fill:#9e1e3d;}.y{fill:#b7675f;}.z{fill:#a1c8ce;}.aa{fill:#ebf4f7;}.ac{opacity:0.46;}.ad,.ak{fill:#344775;}.ae{fill:#4058a3;}.af{fill:#5c9fb7;}.ag{fill:#3f7989;}.ah,.ai{fill:#7cbce0;}.ai,.ak{opacity:0.33;}.aj{fill:#4967b2;}.al{fill:#ebffff;}.am{opacity:0.52;}.an{fill:#bae2e2;}.ao{fill:#32ed5e;}.ap{fill:#00d7df;}.aq{fill:#5183bf;}.ar,.at{fill:#ce557d;}.as{fill:#f47398;}.at{opacity:0.43;}.au{opacity:0.22;}.av{fill:#97d3d1;}.aw{opacity:0.13;}.ax{opacity:0.15;}.ay{fill:#ffe2c7;}.az{fill:#ffd4a9;}.ba{fill:#f2bc8b;}.bb{fill:#daf6f7;}.bc{fill:#bde5e5;}.bd{fill:#67e5a6;}.be{fill:#55c48a;}.bf{fill:#badddd;}.bg{fill:#a3c9c8;}.bh{opacity:0.57;}.bi{opacity:0.49;}.bj{fill:#6794bf;}.bk,.bs{fill:#334763;}.bl{fill:#501a57;}.bm{fill:#63c6f8;}.bn{fill:#e4edef;}.bo{fill:#ea2d44;}.bp{fill:#b71c4c;}.bq{opacity:0.17;}.br{fill:#656bdb;}.bs{opacity:0.67;}.bt{fill:#212b38;opacity:0.32;}.bu{opacity:0.38;}.bv{opacity:0.64;}.bw{fill:#182d47;}.bx{fill:#86b4db;}.by{fill:#223244;}</style></defs><g transform="translate(-63.554 -52.606)"><g transform="translate(63.554 52.606)"><g transform="translate(0 21.07)"><g transform="translate(78.332)"><path class="a" d="M154.815,100.329l-.046.63c-1.133,15.508-2.3,31.542,6.913,39.148,7.154,5.9,19.878,6.275,38.9,1.135a256.965,256.965,0,0,0,32.265-11.157c19.923-8.1,25.934-10.545,52.553,11.29,5.387,4.42,9.5,6.16,12.574,5.321,4.46-1.216,6.925-7.946,9.78-15.738a125.993,125.993,0,0,1,5.4-13.117,31.37,31.37,0,0,1-.732-4.5C309.7,83.56,287.608,74.458,276.16,81.8s-55.033,8.64-94.42-.048c-12.952-2.857-20.918,1.014-27.048,7.509A58.359,58.359,0,0,1,154.815,100.329Z" transform="translate(-154.009 -79.386)"/></g><g transform="translate(4.342 11.276)"><path class="a" d="M84.659,151.848c16.736-.885,34.7,11.434,42.712,29.286,3.44,7.659,7.722,12.188,13.094,13.847,10.416,3.213,24.3-4.632,40.377-13.716,6.335-3.579,12.886-7.281,19.858-10.7,14.287-7,27.144-7.7,37.183-2.023,11.836,6.7,18.8,21.707,19.1,41.183.113,7.314,1.458,11.7,4.235,13.8,3.83,2.9,10.462,1.574,19.641-.256,11.682-2.327,27.68-5.517,47.062-1.406,24.924,5.286,31.551,17.637,37.4,28.533q.448.837.9,1.666a49.536,49.536,0,0,0-18.741-42.735c-23.736-19.149,10.566-21.766,5.417-49.4-4.729-25.369-36.541-15.74-43.948-37.041-1.935,3.888-3.482,7.88-4.925,11.607-3.287,8.489-5.883,15.194-11.33,16.6-3.792.98-8.435-.8-14.607-5.587-27.467-21.313-33.1-19.145-54.079-11.078a283.4,283.4,0,0,1-34.28,11.211c-20.6,5.265-34.483,4.806-42.44-1.4-10.329-8.061-9.062-24.459-7.838-40.317l.049-.631a55.885,55.885,0,0,0,0-9.567c-12.275,13.487-17.917,36.057-42.432,36.3-16.464.164-23.978,12.213-25.728,25.427-.011.082-.017.164-.027.245A30.1,30.1,0,0,1,84.659,151.848Z" transform="translate(-71.304 -93.717)"/></g><g transform="translate(0 77.898)"><path class="a" d="M362.855,267.139C356.881,256,350.7,244.475,326.47,239.331c-19.055-4.043-34.862-.892-46.4,1.41-9.565,1.906-16.476,3.285-20.842-.018-3.142-2.378-4.662-7.1-4.781-14.861-.293-18.984-6.988-33.569-18.37-40.013-9.573-5.421-21.929-4.707-35.73,2.063-6.927,3.4-13.453,7.089-19.765,10.658-16.372,9.257-30.513,17.25-41.552,13.844-5.792-1.789-10.365-6.572-13.977-14.622-7.776-17.331-25.117-29.3-41.251-28.444a28.51,28.51,0,0,0-13.623,4.216,79.632,79.632,0,0,0,.313,16.553,51.1,51.1,0,0,1-.133,11.461c-1.209,10.728-4.753,21.4-4.563,32.189.022,1.257.084,2.512.165,3.767,8.2,6.086,18.554,10.57,27.956,14.639,10.091,4.369,18.807,8.142,22.157,12.925a7.8,7.8,0,0,1,1.042,7.021c-2.266,7.593-14.025,16.009-25.171,22.507a53.63,53.63,0,0,0,12.514,7.924c31.961,14.48,79.3-7,101.61,2.068S343.038,310,356.092,292.889a46.089,46.089,0,0,0,8.715-22.163C364.146,269.546,363.5,268.347,362.855,267.139Z" transform="translate(-65.785 -169.304)"/></g><g transform="translate(0.289 147.868)"><path class="a" d="M113.118,290.7a6.753,6.753,0,0,0-.809-5.878c-2.953-4.453-11.035-8.15-20.4-12.43-8.336-3.812-17.9-8.19-25.76-14.159a100.668,100.668,0,0,0,3.611,19.457c3.628,12.7,9.857,25.546,19.774,34.892C99.99,306.184,111.079,297.922,113.118,290.7Z" transform="translate(-66.153 -258.236)"/></g></g><g transform="translate(40.844 221.848)"><ellipse class="b" cx="121.043" cy="8.619" rx="121.043" ry="8.619"/></g><g transform="translate(210.61 104.989)"><rect class="c" width="6.169" height="39.698" transform="translate(24.866 78.202)"/><path class="d" d="M373.28,223.507c-1.954,7.9-3.624,15.951-6.7,23.511a17.876,17.876,0,0,1-6.68,8.682c-3.083,1.947-6.811,2.536-10.441,2.924a188.654,188.654,0,0,1-19.5.866,51.279,51.279,0,0,1-10.906-.818,7.553,7.553,0,0,1-3.81-1.732,5.134,5.134,0,0,1-1.338-2.494,9.413,9.413,0,0,1-.146-3.209,18.925,18.925,0,0,1,6.327-11.53,35.72,35.72,0,0,1,11.578-6.659c2.4-.907,4.933-1.711,6.866-3.409,3.007-2.64,3.971-6.908,4.213-10.9.692-11.4-3.1-22.534-6.984-33.274a55.6,55.6,0,0,1,15.763-7.352,32.782,32.782,0,0,1,9.985-1.123,16.482,16.482,0,0,1,8.779,2.64c5.031,3.562,6.36,10.408,6.506,16.567A103.848,103.848,0,0,1,373.28,223.507Z" transform="translate(-313.284 -176.957)"/><path class="d" d="M338.055,324.036a71.56,71.56,0,0,0-11.421,2.781c-3.506,1.007-10.952,2.225-13.227,5.471a1.093,1.093,0,0,0-.113,1.159,1.614,1.614,0,0,0,1.117.581c10.567,2.2,21.469,2.368,32.217,2.064a111.046,111.046,0,0,0,13.626-1.077c2.632-.4,5.953-.79,8.15-2.455,3.606-2.733-8.663-5.642-9.891-5.939-6.293-1.519-12.761-3.124-19.287-2.69Q338.64,323.969,338.055,324.036Z" transform="translate(-313.174 -208.278)"/><path class="e" d="M365.915,184.058s15.408-3.131,16.794,12.542-11.78,39.982-11.317,32.447-4.6-34.806-4.6-34.806Z" transform="translate(-324.419 -178.417)"/><path class="e" d="M372.635,253.2s-5.282,17.061-15.575,18.216-20.39,1.848-19.962,0,10.818-.315,21.448-5.336S372.635,253.2,372.635,253.2Z" transform="translate(-318.272 -193.213)"/><path class="f" d="M349.653,285.867s-2.621,1.868-2.621,12.839-.382,14.782,1.311,14.667S349.653,285.867,349.653,285.867Z" transform="translate(-320.385 -200.178)"/></g><g transform="translate(210.61 104.989)"><rect class="c" width="6.169" height="39.698" transform="translate(38.663 117.901) rotate(180)"/><path class="d" d="M316.708,223.507c1.954,7.9,3.624,15.951,6.7,23.511a17.876,17.876,0,0,0,6.68,8.682c3.083,1.947,6.811,2.536,10.441,2.924a188.654,188.654,0,0,0,19.5.866,51.279,51.279,0,0,0,10.906-.818,7.553,7.553,0,0,0,3.81-1.732,5.134,5.134,0,0,0,1.338-2.494,9.413,9.413,0,0,0,.146-3.209,18.925,18.925,0,0,0-6.327-11.53,35.72,35.72,0,0,0-11.578-6.659c-2.4-.907-4.933-1.711-6.866-3.409-3.007-2.64-3.971-6.908-4.213-10.9-.692-11.4,3.1-22.534,6.984-33.274a55.6,55.6,0,0,0-15.763-7.352,32.782,32.782,0,0,0-9.985-1.123,16.482,16.482,0,0,0-8.779,2.64c-5.031,3.562-6.36,10.408-6.506,16.567A103.848,103.848,0,0,0,316.708,223.507Z" transform="translate(-313.174 -176.957)"/><path class="d" d="M353.894,324.036a71.559,71.559,0,0,1,11.421,2.781c3.506,1.007,10.952,2.225,13.227,5.471a1.093,1.093,0,0,1,.112,1.159,1.614,1.614,0,0,1-1.117.581c-10.567,2.2-21.469,2.368-32.217,2.064a111.047,111.047,0,0,1-13.626-1.077c-2.632-.4-5.953-.79-8.15-2.455-3.607-2.733,8.662-5.642,9.891-5.939,6.293-1.519,12.761-3.124,19.287-2.69Q353.308,323.969,353.894,324.036Z" transform="translate(-315.244 -208.278)"/><path class="e" d="M336.6,184.058s-15.408-3.131-16.794,12.542,11.78,39.982,11.318,32.447,4.6-34.806,4.6-34.806Z" transform="translate(-314.566 -178.417)"/><path class="e" d="M324.825,253.2s5.282,17.061,15.575,18.216,20.391,1.848,19.962,0-10.818-.315-21.448-5.336S324.825,253.2,324.825,253.2Z" transform="translate(-315.658 -193.213)"/><path class="f" d="M356.711,285.867s2.621,1.868,2.621,12.839.382,14.782-1.311,14.667S356.711,285.867,356.711,285.867Z" transform="translate(-322.449 -200.178)"/></g><g transform="translate(43.151 104.286)"><rect class="c" width="6.169" height="39.698" transform="translate(38.663 117.9) rotate(180)"/><path class="d" d="M124.164,222.614c1.954,7.9,3.624,15.951,6.7,23.51a17.877,17.877,0,0,0,6.68,8.682c3.083,1.947,6.811,2.536,10.442,2.924a188.627,188.627,0,0,0,19.5.866,51.281,51.281,0,0,0,10.906-.817,7.553,7.553,0,0,0,3.81-1.732,5.127,5.127,0,0,0,1.338-2.494,9.412,9.412,0,0,0,.146-3.209,18.928,18.928,0,0,0-6.326-11.53,35.732,35.732,0,0,0-11.579-6.659c-2.4-.907-4.933-1.711-6.866-3.408-3.007-2.64-3.97-6.909-4.213-10.9-.692-11.4,3.1-22.533,6.985-33.273a55.615,55.615,0,0,0-15.764-7.352,32.756,32.756,0,0,0-9.985-1.122,16.475,16.475,0,0,0-8.779,2.64c-5.03,3.562-6.36,10.408-6.506,16.567A103.857,103.857,0,0,0,124.164,222.614Z" transform="translate(-120.63 -176.064)"/><path class="d" d="M161.35,323.142a71.563,71.563,0,0,1,11.421,2.781c3.506,1.007,10.952,2.225,13.227,5.471a1.091,1.091,0,0,1,.113,1.159,1.614,1.614,0,0,1-1.117.581c-10.567,2.2-21.469,2.368-32.217,2.064a110.886,110.886,0,0,1-13.626-1.078c-2.632-.4-5.952-.789-8.15-2.454-3.607-2.733,8.662-5.642,9.891-5.939,6.293-1.518,12.761-3.124,19.288-2.69Q160.764,323.075,161.35,323.142Z" transform="translate(-122.7 -207.385)"/><path class="e" d="M144.056,183.164s-15.408-3.131-16.794,12.541,11.78,39.983,11.318,32.448,4.6-34.806,4.6-34.806Z" transform="translate(-122.023 -177.523)"/><path class="e" d="M132.281,252.3s5.282,17.061,15.575,18.216,20.391,1.848,19.962,0-10.818-.315-21.448-5.336S132.281,252.3,132.281,252.3Z" transform="translate(-123.114 -192.32)"/><path class="f" d="M164.167,284.973s2.621,1.868,2.621,12.839.382,14.782-1.311,14.667S164.167,284.973,164.167,284.973Z" transform="translate(-129.905 -199.285)"/></g><g transform="translate(169.844 70.217)"><path class="g" d="M318.845,218.9h-1.414s.007-2.654,0-6.929a97.815,97.815,0,0,0-1.275-10.733c-.748-5.065-1.656-11.087-2.19-16.866-1.012-10.9,2.439-13.262,2.633-13.379a14.976,14.976,0,0,0-.637,6.575c.416,6.437,2.647,14.814,3.2,19.478C319.919,203.45,319.468,213.512,318.845,218.9Z" transform="translate(-276.983 -140.913)"/><path class="h" d="M319.431,220.677h-1.414s.007-2.654,0-6.929a97.809,97.809,0,0,0-1.275-10.733,31.858,31.858,0,0,0,.512-10.608,97.8,97.8,0,0,1-.707-13.061c.416,6.437,2.647,14.814,3.2,19.478C320.5,205.232,320.054,215.293,319.431,220.677Z" transform="translate(-277.569 -142.695)"/><path class="i" d="M355.993,222.12c-1.386,1.386-20.205,2.2-27.024,2.2s-10.393-.81-9.7-5.772c.048-.353.1-.741.146-1.157.2-1.747.388-3.984.512-6.437a99.042,99.042,0,0,0-.194-15.417c-.776-6.589-4.92-20.586-2.564-26.053a4.321,4.321,0,0,1,.367-.714c3.118-4.85,12.015-4.85,12.015-4.85s13.622,1.968,18.473,9.762c4.123,6.618,7.989,35.934,8.211,45.469C356.277,220.845,356.2,221.912,355.993,222.12Z" transform="translate(-277.553 -139.405)"/><path class="j" d="M356.733,226.429c-1.386,1.386-20.205,2.2-27.024,2.2s-10.393-.81-9.7-5.772c.048-.353.1-.741.146-1.157.2-1.747.388-3.984.512-6.437,3.576-4.164,14.718-14.925,14.822-15.417.111-.548,7.227-15.715,7.227-15.715s-.167,13.546-3.236,21.633-11.038,10.595-11.267,15.8,19.166,4.29,23.559,4.172c4.109-.1,5.1-2.044,5.2-2.279C357.017,225.154,356.941,226.222,356.733,226.429Z" transform="translate(-278.293 -143.714)"/><path class="k" d="M322.716,329.511s-8.661,3.363-7.622,5.281,10.913,0,10.913,0Z" transform="translate(-277.245 -174.712)"/><path class="l" d="M331.758,329.52s1.818,5.976,0,6.843-16.348,5.716-15.319,2.771,7.079-5.563,8.038-7.718S331.758,329.52,331.758,329.52Z" transform="translate(-277.539 -174.712)"/><path class="m" d="M323.979,153.54s.36-2.1,1.629-2.1,1.675-.982,1.906-2.252.751-.346,1.039-1.617-.949-2.483-.416-3.407.851-1.039.46-1.79-.013-1.155.174-1.732-.416-1.27-.634-2.079.012-.356-.969-1.044-2.31-.976-2.31-2.131-.981-.4-1.963-1.039.116-1.039-1.328-.982-3.038.624-3.569-.006a1.908,1.908,0,0,0-2.321-.341,1.482,1.482,0,0,1-1.5.231c-.346-.115-1.064.463-1.86.924s-1.258-.116-1.951.4-1.328,0-1.5,1.1-2.309.981-1.906,3.234a2.629,2.629,0,0,0,2.079,2.425l13.627,12.877Z" transform="translate(-275.517 -132.763)"/><path class="n" d="M326.388,162.146c-2.488,1.677-5.024,2.481-6.236,2.252-1.1-.208-1.441-.651-1.192-2.446.02-.187.049-.395.09-.617a6.8,6.8,0,0,0-.7-4.212s-.568.228-2.419.983-6.347.866-7.448-3.873.582-11.779.81-11.606,1.961-.575,2.89-1.906,3.52-2.252,4.157-1.788a3.461,3.461,0,0,0,2.363.921c1.039-.055,1.212.118,1.33,1.157s1.212.921,1.094,1.788-.284.984,0,1.677a3.8,3.8,0,0,1,.464,1.851c0,.866,3.292.921,3.465,1.788s-2.654,2.134-2.6,4.33c.042,1.622.811,1.636,1.414,2.044a1.364,1.364,0,0,1,.548.673c.519,1.268,3.928,4.386,3.928,4.386S328.869,160.468,326.388,162.146Z" transform="translate(-275.775 -134.053)"/><path class="o" d="M326.646,158.737a16.629,16.629,0,0,0-1.878,2.578c-.561.95-2,3.236-3.035,4.885.02-.187.049-.395.09-.617a6.8,6.8,0,0,0-.7-4.212Z" transform="translate(-278.549 -138.301)"/><path class="f" d="M353.589,250.087c0,.007-.007.007-.007.014-.45,3.458-1.919,6.832-5.495,8.689-9.354,4.85-24.425,4.157-24.425,4.157l.007.006c.069.354,4.685,23.289,6.056,34.119,1.386,10.914,1.3,12.646.264,13.082a40.878,40.878,0,0,1-8,1.85c-1.164.1-2.057.02-2.307-.382-.866-1.386-11.607-36.641-11.607-36.641V239.562H319.5l32.892-.894A29.575,29.575,0,0,1,353.589,250.087Z" transform="translate(-275.766 -155.343)"/><path class="n" d="M274.006,228.465a16.545,16.545,0,0,0-5,1.472c-1.732,1.039-1.991,1.213-1.991,1.213h7.881Z" transform="translate(-267.011 -153.168)"/><path class="g" d="M331.528,195.9c-2.772,7.677-6.292,14.606-11.835,17.953-3.465,2.093-11.253,3.984-18.743,5.113h-.007a87.639,87.639,0,0,1-12.147,1.068H276.788s-.02-.049-.062-.132c-.264-.561-1.234-2.73-.63-3.333.692-.692,19.345-3,27.66-6.582s9.583-3.638,12.182-9.237,7.157-24.487,12.936-24.425c1.746.021,2.938,1.123,3.666,2.862C334.209,183.177,333.461,190.543,331.528,195.9Z" transform="translate(-268.906 -142.051)"/><path class="p" d="M320.719,179.761s-.776,24.021,3,17.987,8.368-18.1,7.283-21.856-6.8.577-9.227-1.154S320.719,179.761,320.719,179.761Z" transform="translate(-278.38 -141.621)"/><path class="c" d="M356.639,253.2c-.45,3.458-1.919,6.832-5.495,8.689-9.354,4.85-24.425,4.157-24.425,4.157s-1.9-8.315-3.118-9.7c-.907-1.039-1.136-1.3-1.191-1.365.492.367,8.508,6.319,18.681,6.319q1.133,0,2.286-.1C353.147,260.315,355.988,254.876,356.639,253.2Z" transform="translate(-278.823 -158.441)"/><path class="q" d="M325.466,244.766s1.212,6.409,13.858,8.488,17.15-3.984,14.032-8.488S325.466,244.766,325.466,244.766Z" transform="translate(-279.474 -156.217)"/><path class="c" d="M321.986,312.247c-1.164.1-2.057.02-2.307-.382-.866-1.386-11.607-36.641-11.607-36.641V239.8h9.645s-4.441.007-6.174,16.976C309.95,272.364,320.281,306.718,321.986,312.247Z" transform="translate(-275.766 -155.585)"/><path class="q" d="M319.329,264.022s4.039,6.063,6.81,24.252,1.386,22,0,24.079-7.53-17.795-9.914-31.59S319.329,264.022,319.329,264.022Z" transform="translate(-277.376 -160.749)"/><path class="q" d="M276.949,231.71c.415.028.839.076,1.275.132h-1.212S276.991,231.793,276.949,231.71Z" transform="translate(-269.13 -153.86)"/><path class="h" d="M338.316,196.675c-2.772,7.677-6.292,14.606-11.835,17.953-3.465,2.093-11.253,3.984-18.743,5.113,9.839-2.231,17.8-6.471,22.09-10.885,7.31-7.519,9.5-28.894,9.5-28.894C341,183.953,340.249,191.318,338.316,196.675Z" transform="translate(-275.695 -142.826)"/><path class="r" d="M338.241,178.927s3.9-.26,2.511,6.236-10.194,20.181-12.589,20.527.607-6.629,3.494-15.244S338.241,178.927,338.241,178.927Z" transform="translate(-279.864 -142.605)"/><path class="p" d="M348.984,191.253s.943,11.664-5.592,19.863-6.214,9.816-2.39,10.855,13.576,1.857,15.835-7.622-4.157-30.257-5.659-31.989S348.984,191.253,348.984,191.253Z" transform="translate(-282.205 -143.297)"/></g><g transform="translate(67.009 69.135)"><path class="s" d="M242.748,201.707s3.289-3.522,5.6-3.754,1.79.174,2.425.924,2.483-.577,2.541.115-3.869,4.124-6.525,4.689-5.428.993-5.139,0A6.594,6.594,0,0,1,242.748,201.707Z" transform="translate(-165.558 -145.566)"/><path class="s" d="M242.755,187.727a24.128,24.128,0,0,0,1.617-4.1c.52-1.963,3.445-5.024,3.339-4.273a9.805,9.805,0,0,1-.8,2.125,7.706,7.706,0,0,0,2.945-2.242c.751-1.269,1.212-2.713,1.674-2.078a1.8,1.8,0,0,1,.4,1.155s1.155-.462.635,1.1a14.561,14.561,0,0,1-5.2,6.067,7.79,7.79,0,0,0-3.118,3.865Z" transform="translate(-165.798 -141.114)"/><path class="f" d="M183.484,167.172l10.123-1.926,7.252,62.819-23.348-1.829Z" transform="translate(-151.888 -138.606)"/><path class="c" d="M179.522,182.692s2.783,13.236,9.706,16.589a24.029,24.029,0,0,0,14.012,1.854l-2.98,19.323s-10.093-3.949-11.032,1.342,11.674,3.291,11.674,3.291l1.288,9.354s-23.77-.865-24.636-1.039S179.522,182.692,179.522,182.692Z" transform="translate(-151.862 -142.326)"/><path class="t" d="M215.05,198.657c-6.1,1.338-12.1,2.321-15.2,1.968a5.135,5.135,0,0,1-1.06-.208c-.582-12.7-.77-30.294-.77-30.294l-.055-4.878.186.076c1.012.409,5.814,2.377,7.068,3.618,1.4,1.386,2.862,7.733,4.248,11.661C210.518,183.559,213.595,193.786,215.05,198.657Z" transform="translate(-156.25 -138.606)"/><path class="f" d="M204.181,202.583c-.019-.238-1.926-23.862-2.633-30.029a17.686,17.686,0,0,0-3.825-9.46l.5-.5a18.136,18.136,0,0,1,4.014,9.873c.709,6.179,2.617,29.816,2.636,30.054Z" transform="translate(-156.197 -138.042)"/><path class="u" d="M198.761,138.476s.809-.174,0-2.007-6.814-6.279-12.645-4.777-6.582,7.391-8.026,7.622-5.6-.057-5.717,4.851,2.483,7.218,4.389,6.525a5.525,5.525,0,0,1,4.792.12c1.386.746,4.225-1.279,4.225-1.279Z" transform="translate(-150.791 -131.387)"/><path class="v" d="M202.77,239.241v27.848s-14.357,43.889-15.279,44.346c-.721.367-4.075-1.261-5.267-2.537-.325-.353-.492-.679-.395-.928.465-1.15,4.275-24.6,6.237-34.181a120.881,120.881,0,0,1,3.464-13.858,29.624,29.624,0,0,1-6.465-1.615c-3.928-1.386-4.622-2.079-4.622-2.079l4.15-17.9,3.112.153,3.943.2Z" transform="translate(-152.513 -154.189)"/><path class="w" d="M203.252,239.337v27.848s-14.357,43.889-15.279,44.346c-.721.367-4.075-1.261-5.267-2.537,4.054,1.1,6.063-4.06,9.382-13.511,3.769-10.74,9.742-29.684,9.86-40.653s-1.732-12.7-5.89-13.512c-3.083-.6-3.777-1.9-3.928-2.536Z" transform="translate(-152.995 -154.285)"/><path class="w" d="M205.472,274.881v20.441s-.6,1.282-1.5,3.16v.007c-2.3,4.8-6.562,13.5-7.844,14.8-.118.125-.215.18-.277.167a9.123,9.123,0,0,1-2.737-1.76Z" transform="translate(-155.215 -161.982)"/><path class="x" d="M205.472,274.881v20.441s-.6,1.282-1.5,3.16c.187-2.37.132-4.982-.734-6.389-1.684-2.744-8.169,14.69-7.109,21.2-.118.125-.215.18-.277.167a9.123,9.123,0,0,1-2.737-1.76Z" transform="translate(-155.215 -161.982)"/><path class="t" d="M215.975,252.032h-8.834s-5.107-16.311-6.846-27.252a51.766,51.766,0,0,0,9.582-2.37s.728,1.906,2.806,8.744S215.975,252.032,215.975,252.032Z" transform="translate(-156.745 -150.794)"/><path class="t" d="M240.157,196.513a9.826,9.826,0,0,1-.742.957h-.006a21.978,21.978,0,0,1-1.566,1.607c-2.314.741-6.853,2.023-11.877,3.264,1.137-1.2,2.537-2.717,4-4.31,4.2-4.574,8.917-9.791,9.382-10.061.811-.464,2.543,1.039,3.063,1.441S243.968,190.852,240.157,196.513Z" transform="translate(-162.219 -143.432)"/><path class="s" d="M199.876,154.664c-1.559,1.039-4.033,0-4.033,0a25.925,25.925,0,0,0-.561,4.074,27.814,27.814,0,0,0,0,5.543,8.528,8.528,0,0,1-5.675,0,9.9,9.9,0,0,1-4.5-2.951,11.763,11.763,0,0,0,1.434-2.245c1.018-1.808,1.9-6.631,1.954-8.142a1.864,1.864,0,0,0-.006-.353.439.439,0,0,0-.028-.09,1.325,1.325,0,0,0-.374-.485c-.007-.013-.007-.013-.014-.013-.755-.714-2.252-1.587-2.051-2.786.257-1.559,2.038-.865,2.038-.865a10.029,10.029,0,0,1,.256-2c.256-1.123,6.756-5.841,8.059-6.319s2.425-.041,2.723,1.254,2.383.562,2.383.562a35.773,35.773,0,0,1,.908,5.03C202.862,148.469,201.435,153.625,199.876,154.664Z" transform="translate(-153.506 -132.764)"/><path class="y" d="M196.648,157.962a25.925,25.925,0,0,0-.561,4.074,31.852,31.852,0,0,1-3.326-2.459,18.052,18.052,0,0,1-3.465-5.336c-.242-.506-.388-.859-.415-.928h.007a5.48,5.48,0,0,0,.374.485,12.1,12.1,0,0,0,2.508,2.259A15.677,15.677,0,0,0,196.648,157.962Z" transform="translate(-154.312 -136.062)"/><path class="z" d="M209.957,204.215s-1.29-9.029-1.983-13.59-.788-5.717-.788-5.717,3.1,14.246,4.831,16.016,5,1.926,5,1.926Z" transform="translate(-158.215 -142.799)"/><path class="aa" d="M201.046,195.816a32.193,32.193,0,0,1-1.192,4.809,5.135,5.135,0,0,1-1.06-.208c-.582-12.7-.77-30.294-.77-30.294l-.055-4.878.186.076c.506,2.806,2.28,12.729,2.772,15.4.575,3.118-1.22,5.2-1.129,6.465S201.385,193.017,201.046,195.816Z" transform="translate(-156.25 -138.606)"/><path class="w" d="M195.577,252.656l-1.157,1.386c-1.157,1.386-2.889,5.89-2.889,5.89a29.624,29.624,0,0,1-6.465-1.615c-3.928-1.386-4.622-2.079-4.622-2.079l4.15-17.9,3.112.153c-3.1,2.91-4.248,10.892-2.065,12.784C188.184,253.466,195.577,252.656,195.577,252.656Z" transform="translate(-152.513 -154.189)"/><path class="f" d="M183.112,328.776s-2.335,4.024-1.469,5.236,7.91,5.89,8.488,4.792-1.732-3.753-2.829-5.37a4.651,4.651,0,0,1-.944-2.9Z" transform="translate(-152.727 -173.473)"/><path class="f" d="M194.856,323.176a26.671,26.671,0,0,0,1.345,4.76c.692,1.386-.035,2.021-1.345.751s-3.349-3.486-3.349-3.486l1.267-3.528Z" transform="translate(-154.872 -171.958)"/><path class="aa" d="M225.134,199.53s-15.39,6.8-27.037,10.553c-.007.006-.014.013-.021.013a51.765,51.765,0,0,1-9.582,2.37,10.929,10.929,0,0,1-1.213.056c-6.575-.138-7.594-1.725-7.74-2.308-.007-.062-.013-.1-.02-.138a.558.558,0,0,1-.007-.069s-1.088,5.987-2.674,13.526c-2.592,12.347-6.527,28.859-9.216,30.044-4.331,1.906-20.615-9.7-22.52-12.819s13.858-59.244,17.5-68.507,15.375-7.449,15.375-7.449l-1.434,2.245s.839,9.389,2,14.7c1.13,5.183,2.031,13.519,2.072,13.934a.022.022,0,0,1,.007.014s1.386,2.453,6.666,4.532a1.576,1.576,0,0,0,.208.069c2.563.817,9.354-.249,16.255-1.76,1.663-.367,3.327-.755,4.947-1.143,5.024-1.241,9.563-2.522,11.877-3.264a15.891,15.891,0,0,0,1.5-.533C224.15,192.622,225.134,199.53,225.134,199.53Z" transform="translate(-144.944 -138.481)"/><path class="t" d="M161.916,245.088a28.426,28.426,0,0,0,5.8,3.551c3.031,1.3,5.024,1.559,5.024,2.165s-.173,5.717-5.413,3.292-6.8-3.292-6.452-5.457A13.392,13.392,0,0,1,161.916,245.088Z" transform="translate(-148.331 -155.63)"/><path class="t" d="M180.422,214.77c3.7,3.465,4.677,3.895,4.677,3.895s-1.088,5.987-2.674,13.526a47.678,47.678,0,0,0-.3-7.054c-.95-5.515-4.414-9.327-7.186-12.964a25.289,25.289,0,0,1-3.8-6.908C171.477,205.617,176.833,211.417,180.422,214.77Z" transform="translate(-150.53 -147.139)"/><path class="t" d="M188.817,196.324a82.922,82.922,0,0,1-4.413-11.356c-2.335-7.31.346-17.274.346-17.274s.839,9.389,2,14.7C187.875,187.573,188.776,195.909,188.817,196.324Z" transform="translate(-153.154 -139.128)"/><g transform="translate(29.841 24.082)"><path class="f" d="M184.3,183.754c-.06-.571-1.471-14.038-1.355-17.6a4.213,4.213,0,0,1,3.857-4.158l.05.691a3.483,3.483,0,0,0-3.216,3.49c-.113,3.515,1.338,17.367,1.352,17.506Z" transform="translate(-182.885 -161.995)"/><circle class="f" cx="2.007" cy="2.007" r="2.007" transform="translate(0 20.958)"/><path class="ab" d="M185.99,190.972a.779.779,0,1,1-.779-.78A.779.779,0,0,1,185.99,190.972Z" transform="translate(-183.204 -168.007)"/></g><path class="ac" d="M163.656,192.174s-8.488,16.687-7.1,26.907,12.646,19.4,15.244,14.725-5.5-20.614-5.956-29.276S163.656,192.174,163.656,192.174Z" transform="translate(-147.387 -144.348)"/><path class="ac" d="M173.245,177.22s1.594,16.324,7.379,23.926,14.988,12.8,8.741,2.751S179.086,184.323,178.5,177.22s-4.567-7.867-5.26-5.493A13.157,13.157,0,0,0,173.245,177.22Z" transform="translate(-150.912 -139.73)"/><path class="ac" d="M203.618,213.38s21.946-8.444,24.718-8.118,1.386,3.617-4.5,5.175-17.67,4.677-19.748,4.677S203.618,213.38,203.618,213.38Z" transform="translate(-157.327 -147.136)"/><path class="ac" d="M149.352,244.263s-3.47,6.7,0,12.822,16.283,10.978,15.417,6.44-11.779-9.132-11.953-18.008S149.352,244.263,149.352,244.263Z" transform="translate(-145.555 -154.805)"/><path class="z" d="M239.409,200.068a21.975,21.975,0,0,1-1.566,1.607c-2.314.741-6.853,2.023-11.877,3.264,1.137-1.2,2.537-2.717,4-4.31C232.071,201.641,235.092,201.834,239.409,200.068Z" transform="translate(-162.219 -146.031)"/></g><g transform="translate(106.119 127.26)"><path class="ad" d="M208.335,231.514s.064-1.343,2.629-1.343h12.268l-3.9,1.343Z" transform="translate(-193.957 -210.574)"/><path class="ae" d="M221.181,224.9l7.622-18.774a1.386,1.386,0,0,1,1.284-.864h29.847a1.385,1.385,0,0,1,1.306,1.847L254.6,225.886a1.385,1.385,0,0,1-1.307.924H222.465A1.386,1.386,0,0,1,221.181,224.9Z" transform="translate(-196.674 -205.264)"/><rect class="af" width="78.091" height="81" transform="translate(14.759 26.372)"/><rect class="ag" width="78.091" height="3.974" transform="translate(14.759 26.372)"/><rect class="ah" width="110.906" height="5.987" transform="translate(0 20.939)"/><rect class="ag" width="78.091" height="8.083" transform="translate(14.759 99.289)"/><rect class="ag" width="78.091" height="2.279" transform="translate(14.759 93.35)"/><path class="ai" d="M211.686,272.829q-.008,1.023-.009,2.047c-.008,8.936.482,18,3.26,26.493,1.821,5.567,4.935,11.139,10.179,13.745,3.568,1.773,7.685,1.962,11.663,2.16,10.066.5,20.147,1.27,30.212.74a25.072,25.072,0,0,0,8.05-1.413,2.174,2.174,0,0,0,1.109-.776c.663-1.087-.666-2.284-1.8-2.854-10.88-5.448-22.723-9.581-31.718-17.776-13.113-11.947-17.9-30.332-27.637-45.166-1.747-2.662-2.1.466-2.265,2.048-.272,2.648-.445,5.311-.6,7.968Q211.744,266.43,211.686,272.829Z" transform="translate(-194.67 -214.588)"/><path class="ai" d="M234.509,248.316s10.01,22.859,27.1,39.836,25.176,1.426,25.869-14.242-.924-27.018-16.168-27.233S234.509,248.316,234.509,248.316Z" transform="translate(-199.538 -214.09)"/><path class="aj" d="M234.382,208.628s-3.271,2.772,7.47,5.63,20.527-2.706,20.007-5.63S234.382,208.628,234.382,208.628Z" transform="translate(-199.411 -205.704)"/><path class="ak" d="M228.136,215.665s-4.677,9.788-1.212,11.13,25.291,1.169,26.677,0,2.726-3.734-.5-5.093-14.684-2.139-18.569-5.69S228.136,215.665,228.136,215.665Z" transform="translate(-197.648 -207.199)"/><path class="ad" d="M250.874,218.236a2.229,2.229,0,1,1-1.04-3.208A2.4,2.4,0,0,1,250.874,218.236Z" transform="translate(-202.112 -207.313)"/></g><g transform="translate(94.541)"><path class="al" d="M264.124,56.071V109.12a.728.728,0,0,1-.006.117,3.459,3.459,0,0,1-3.458,3.347H180.976a3.466,3.466,0,0,1-3.465-3.464V56.071a3.466,3.466,0,0,1,3.465-3.465H260.66A3.466,3.466,0,0,1,264.124,56.071Z" transform="translate(-177.511 -52.606)"/><g transform="translate(6.699 5.239)"><g class="am"><path class="an" d="M215.185,61.92H187.353a1.327,1.327,0,0,1-1.328-1.327h0a1.327,1.327,0,0,1,1.328-1.328h27.832a1.328,1.328,0,0,1,1.328,1.328h0A1.328,1.328,0,0,1,215.185,61.92Z" transform="translate(-186.025 -59.265)"/></g><g transform="translate(0 4.85)"><path class="an" d="M215.185,68.085H187.353a1.328,1.328,0,0,1-1.328-1.328h0a1.328,1.328,0,0,1,1.328-1.328h27.832a1.328,1.328,0,0,1,1.328,1.328h0A1.328,1.328,0,0,1,215.185,68.085Z" transform="translate(-186.025 -65.429)"/></g><g transform="translate(0 9.7)"><path class="an" d="M215.185,74.25H187.353a1.328,1.328,0,0,1-1.328-1.328h0a1.328,1.328,0,0,1,1.328-1.328h27.832a1.328,1.328,0,0,1,1.328,1.328h0A1.328,1.328,0,0,1,215.185,74.25Z" transform="translate(-186.025 -71.594)"/></g><g transform="translate(36.608)"><path class="an" d="M242.89,61.92h-9.008a1.328,1.328,0,0,1-1.328-1.327h0a1.328,1.328,0,0,1,1.328-1.328h9.008a1.328,1.328,0,0,1,1.328,1.328h0A1.328,1.328,0,0,1,242.89,61.92Z" transform="translate(-232.554 -59.265)"/></g><g transform="translate(36.608 4.85)"><g class="am"><path class="an" d="M241.273,68.085h-7.391a1.328,1.328,0,0,1-1.328-1.328h0a1.328,1.328,0,0,1,1.328-1.328h7.391a1.328,1.328,0,0,1,1.328,1.328h0A1.328,1.328,0,0,1,241.273,68.085Z" transform="translate(-232.554 -65.429)"/></g></g><g transform="translate(36.608 9.7)"><g class="am"><path class="an" d="M241.273,74.25h-7.391a1.328,1.328,0,0,1-1.328-1.328h0a1.328,1.328,0,0,1,1.328-1.328h7.391a1.328,1.328,0,0,1,1.328,1.328h0A1.328,1.328,0,0,1,241.273,74.25Z" transform="translate(-232.554 -71.594)"/></g></g><g transform="translate(36.608 14.551)"><path class="an" d="M241.273,80.415h-7.391a1.328,1.328,0,0,1-1.328-1.328h0a1.328,1.328,0,0,1,1.328-1.328h7.391a1.328,1.328,0,0,1,1.328,1.328h0A1.328,1.328,0,0,1,241.273,80.415Z" transform="translate(-232.554 -77.759)"/></g><g transform="translate(36.608 19.401)"><path class="an" d="M243.525,86.579h-9.643a1.328,1.328,0,0,1-1.328-1.328h0a1.328,1.328,0,0,1,1.328-1.328h9.643a1.328,1.328,0,0,1,1.328,1.328h0A1.328,1.328,0,0,1,243.525,86.579Z" transform="translate(-232.554 -83.923)"/></g><g transform="translate(36.608 24.251)"><path class="an" d="M246.47,92.744H233.882a1.328,1.328,0,0,1-1.328-1.328h0a1.328,1.328,0,0,1,1.328-1.328H246.47a1.328,1.328,0,0,1,1.328,1.328h0A1.328,1.328,0,0,1,246.47,92.744Z" transform="translate(-232.554 -90.088)"/></g><g transform="translate(36.608 29.102)"><g class="am"><path class="an" d="M268.557,98.909H233.882a1.328,1.328,0,0,1-1.328-1.328h0a1.328,1.328,0,0,1,1.328-1.328h34.674a1.328,1.328,0,0,1,1.328,1.328h0A1.328,1.328,0,0,1,268.557,98.909Z" transform="translate(-232.554 -96.253)"/></g></g><g transform="translate(36.608 33.952)"><rect class="an" width="37.33" height="2.656" rx="1.328"/></g><g transform="translate(36.608 38.803)"><g class="am"><path class="an" d="M268.557,111.238H233.882a1.328,1.328,0,0,1-1.328-1.328h0a1.328,1.328,0,0,1,1.328-1.327h34.674a1.328,1.328,0,0,1,1.328,1.327h0A1.328,1.328,0,0,1,268.557,111.238Z" transform="translate(-232.554 -108.583)"/></g></g><g transform="translate(36.608 45.385)"><path class="an" d="M268.557,119.605H233.882a1.328,1.328,0,0,1-1.328-1.328h0a1.328,1.328,0,0,1,1.328-1.328h34.674a1.328,1.328,0,0,1,1.328,1.328h0A1.328,1.328,0,0,1,268.557,119.605Z" transform="translate(-232.554 -116.949)"/></g><g transform="translate(0 40.534)"><path class="an" d="M215.185,113.44H187.353a1.328,1.328,0,0,1-1.328-1.328h0a1.328,1.328,0,0,1,1.328-1.328h27.832a1.328,1.328,0,0,1,1.328,1.328h0A1.328,1.328,0,0,1,215.185,113.44Z" transform="translate(-186.025 -110.784)"/></g><g transform="translate(0 45.385)"><path class="an" d="M215.185,119.605H187.353a1.328,1.328,0,0,1-1.328-1.328h0a1.328,1.328,0,0,1,1.328-1.328h27.832a1.328,1.328,0,0,1,1.328,1.328h0A1.328,1.328,0,0,1,215.185,119.605Z" transform="translate(-186.025 -116.949)"/></g></g><g transform="translate(11.78 20.021)"><circle class="ab" cx="10.971" cy="10.971" r="10.971"/></g><g transform="translate(53.797 0.543)"><g transform="translate(0 0)"><circle class="ab" cx="11.476" cy="11.476" r="11.476" transform="translate(0 16.23) rotate(-45)"/></g></g><g transform="translate(14.469 23.486)"><g transform="translate(1.052 1.056)"><path class="ao" d="M207.243,94.262a.457.457,0,0,1-.324-.135l-4.19-4.19a.458.458,0,0,1,.648-.648l4.19,4.19a.459.459,0,0,1-.324.783Z" transform="translate(-198.38 -84.94)"/><path class="ap" d="M205.028,95.919a.456.456,0,0,1-.324-.134l-3.426-3.426a.458.458,0,0,1,.648-.648l3.426,3.426a.458.458,0,0,1-.324.782Z" transform="translate(-198.071 -85.456)"/><path class="ap" d="M208.9,92.046a.457.457,0,0,1-.324-.135l-3.426-3.426a.458.458,0,0,1,.648-.648l3.426,3.426a.459.459,0,0,1-.324.783Z" transform="translate(-198.896 -84.631)"/><path class="ao" d="M212.807,88.14a.457.457,0,0,1-.324-.135l-3.426-3.426a.458.458,0,0,1,.648-.648l3.426,3.426a.458.458,0,0,1-.324.782Z" transform="translate(-199.729 -83.798)"/><path class="ao" d="M201.122,99.826a.457.457,0,0,1-.324-.135l-3.426-3.426a.458.458,0,0,1,.648-.648l3.426,3.426a.459.459,0,0,1-.324.783Z" transform="translate(-197.238 -86.289)"/></g><path class="aq" d="M211.477,86.687a.461.461,0,0,0-.631-.153,3.428,3.428,0,0,1-.7.333,3.846,3.846,0,0,1-1.046.242,3.945,3.945,0,0,1-1.552-.146l-.395-.111-.117-.4a4.148,4.148,0,0,1,.1-2.605,4.189,4.189,0,0,1,.333-.693.459.459,0,0,0-.784-.478,4.46,4.46,0,0,0-.492,1.1c-.007.007-.013.014-.013.02a.567.567,0,0,0-.028.1,5.054,5.054,0,0,0-.042,2.648,4.97,4.97,0,0,0-2.667.048.431.431,0,0,0-.083.028,4.9,4.9,0,0,0-2.051,1.234.689.689,0,0,0-.062.069,4.874,4.874,0,0,0-1.178,1.989.341.341,0,0,0-.028.083,4.973,4.973,0,0,0-.049,2.668,5.015,5.015,0,0,0-2.64.042.508.508,0,0,0-.138.042,5.067,5.067,0,0,0-1.088.492.457.457,0,0,0,.471.783,3.847,3.847,0,0,1,.7-.333,3.7,3.7,0,0,1,1.053-.242,4.044,4.044,0,0,1,1.545.146l.4.111.117.4a4.065,4.065,0,0,1,.146,1.552,4.238,4.238,0,0,1-.242,1.053,4.287,4.287,0,0,1-.34.693.46.46,0,0,0,.153.63.5.5,0,0,0,.236.062.455.455,0,0,0,.395-.215,4.632,4.632,0,0,0,.5-1.122.2.2,0,0,0,.028-.083,4.986,4.986,0,0,0,.049-2.668,4.94,4.94,0,0,0,2.64-.041.2.2,0,0,0,.062-.014c.028-.007.049-.014.069-.02a4.967,4.967,0,0,0,2.037-1.234.613.613,0,0,0,.063-.069,4.976,4.976,0,0,0,1.178-1.982.986.986,0,0,0,.028-.111,4.968,4.968,0,0,0,.042-2.647,5.146,5.146,0,0,0,1.254.16,4.863,4.863,0,0,0,1.414-.208.19.19,0,0,0,.083-.028,4.638,4.638,0,0,0,1.123-.5A.46.46,0,0,0,211.477,86.687ZM205.795,91.7a3.613,3.613,0,0,1-.651.651,3.64,3.64,0,0,1-1.116.63,3.907,3.907,0,0,1-1.046.249,4.078,4.078,0,0,1-1.552-.146l-.4-.117-.118-.4a4.129,4.129,0,0,1-.146-1.559,3.919,3.919,0,0,1,.249-1.046,3.7,3.7,0,0,1,.631-1.123,3.906,3.906,0,0,1,.651-.644,3.792,3.792,0,0,1,1.116-.63,3.844,3.844,0,0,1,1.046-.249,4.1,4.1,0,0,1,1.559.146l.395.118.118.395a4.106,4.106,0,0,1,.146,1.552,3.714,3.714,0,0,1-.249,1.054A3.668,3.668,0,0,1,205.795,91.7Z" transform="translate(-195.901 -82.456)"/></g><path class="ar" d="M275.189,75.234l-.062.166c-.81-.6-1.566-1.3-.928-1.822a1.148,1.148,0,0,1,.817-.215A3.312,3.312,0,0,1,275.189,75.234Z" transform="translate(-198.075 -57.031)"/><g transform="translate(61.891 9.871)"><path class="as" d="M271.509,73.584l-.062.166c-.312.8-.887,1.892-1.323,1.968-.464.09-.8.347-.817.575a.5.5,0,0,1-.153.243,4.06,4.06,0,0,1-1.31.887,6.94,6.94,0,0,1-1.933,0l-.1,1.094-1.261.2-1.2-3.118-.305-.375s-2.183.256-2.647-.277a6.129,6.129,0,0,1-.838-1.733s-1.788.069-2.2-.679-.686-.88-.659-1.677a3.428,3.428,0,0,1,.367-1.67c.256-.485.007-.831.672-1.441.062-.056.118-.111.173-.16.548-.519.846-.887,1.282-.9a22.187,22.187,0,0,0,2.065-.825c.083.069.346,0,.346,0a9.49,9.49,0,0,1,3.375-.131,6.38,6.38,0,0,0,2.093.208s1.836,1.039,2.037,1.538,1.469,1.054,1.531,1.6a5.092,5.092,0,0,0,.319,1.781,3.629,3.629,0,0,1,.374.852A3.311,3.311,0,0,1,271.509,73.584Z" transform="translate(-256.286 -65.252)"/><path class="ar" d="M270.977,70.519a.365.365,0,0,0,.022-.062,1.378,1.378,0,0,0-.469-1.445,1.473,1.473,0,0,0-1-1.061,1.815,1.815,0,0,0-.581-1.24,2.69,2.69,0,0,0-1.759-.577h-.013a1.684,1.684,0,0,0-1.771-.591,7.079,7.079,0,0,0-.9-.242.306.306,0,1,0-.119.6,6.445,6.445,0,0,1,.9.247.3.3,0,0,0,.173.009c.01,0,1.02-.232,1.242.392a.307.307,0,0,0,.318.2,2.274,2.274,0,0,1,1.523.415,1.157,1.157,0,0,1,.362.688,1.567,1.567,0,0,0-1.393.829.306.306,0,0,0,.547.276,1.1,1.1,0,0,1,1.112-.488c.113.037.784.277.758.687a.305.305,0,0,0,.165.293.715.715,0,0,1,.2.19.772.772,0,0,1,.121.616l-.02.028a1.378,1.378,0,0,0-1.288,1.235.306.306,0,0,0,.271.338.249.249,0,0,0,.034,0,.306.306,0,0,0,.3-.272.778.778,0,0,1,.751-.694c1.341.984.394,3.28.332,3.427a1.556,1.556,0,0,1-1.272.99,4.5,4.5,0,0,0-1.836-.849.306.306,0,1,0-.143.6,3.994,3.994,0,0,1,1.561.7,1.133,1.133,0,0,1-.034.248c-.218.865-1.389,1.319-2.611,1.012a3.179,3.179,0,0,1-.582-.209.306.306,0,0,0-.437.249,4.133,4.133,0,0,0,.05,1.139l-.8.134c-.035-.122-.069-.264-.106-.419a6.134,6.134,0,0,0-1.2-2.7,11.874,11.874,0,0,1,1.822-.3.306.306,0,0,0-.05-.611,13.062,13.062,0,0,0-2.427.452,6.738,6.738,0,0,1-1.384.058c-1.328-.2-1.7-1-1.612-1.629a.306.306,0,0,0-.376-.34l-.222.054a2.841,2.841,0,0,1-1.791-.676.994.994,0,0,1-.221-.814.308.308,0,0,0-.161-.308.38.38,0,0,1-.164-.217.69.69,0,0,1,.172-.5.3.3,0,0,0,.04-.286,1.777,1.777,0,0,1,.03-1.2,1.325,1.325,0,0,1,.817-.659.3.3,0,0,0,.206-.264.94.94,0,0,1,.322-.6,1.037,1.037,0,0,1,.838-.111.306.306,0,0,0,.363-.252c0-.006.138-.644,1.334-.666a1.5,1.5,0,0,1,.284,1.48.306.306,0,0,0,.546.279,1.58,1.58,0,0,0,.172-.644,1.017,1.017,0,0,1,.628-.085.519.519,0,0,1,.315.3.306.306,0,0,0,.551-.268,1.126,1.126,0,0,0-.691-.615,1.485,1.485,0,0,0-.882.046,2.718,2.718,0,0,0-.316-.685,3.964,3.964,0,0,1,.579-.2.306.306,0,0,0-.156-.592,4.2,4.2,0,0,0-.963.375,1.92,1.92,0,0,0-1.9.893,1.393,1.393,0,0,0-1.6,1.1,1.852,1.852,0,0,0-1,.91,2.3,2.3,0,0,0-.1,1.517,1.138,1.138,0,0,0-.186.869.963.963,0,0,0,.3.495,1.564,1.564,0,0,0,.379,1.105,3.455,3.455,0,0,0,2.234.889,2.209,2.209,0,0,0,2.15,1.909l.014,0c.013,0,.171.017.439.017a8.024,8.024,0,0,0,.974-.061,5.127,5.127,0,0,1,1.3,2.682,5.658,5.658,0,0,0,.21.736.307.307,0,0,0,.283.19.354.354,0,0,0,.05,0l1.386-.231a.308.308,0,0,0,.244-.388,3.222,3.222,0,0,1-.123-.829c.09.031.181.057.274.08a3.39,3.39,0,0,0,2.106-.113,2.005,2.005,0,0,0,1.249-1.343,1.783,1.783,0,0,0,.043-.25,2.184,2.184,0,0,0,1.635-1.313l.008-.017a5.886,5.886,0,0,0,.416-1.6A2.7,2.7,0,0,0,270.977,70.519Z" transform="translate(-256.174 -65.183)"/><path class="ar" d="M265.2,70.693a2.367,2.367,0,0,0,.375.854,2.088,2.088,0,0,0,.259.3c-.055.315-.537.487-.548.491a.306.306,0,1,0,.2.58,1.535,1.535,0,0,0,.876-.715,2.087,2.087,0,0,0,.87.177h.066a.306.306,0,0,0-.007-.613h-.008a1.459,1.459,0,0,1-1.479-1.186.306.306,0,1,0-.6.111Z" transform="translate(-258.072 -66.257)"/><path class="ar" d="M269.671,73.437a1.938,1.938,0,0,0,.053-2.087,2.293,2.293,0,0,0-.713-.718.306.306,0,0,0-.312.527,1.69,1.69,0,0,1,.513.529,1.362,1.362,0,0,1-.072,1.445.306.306,0,1,0,.531.3Z" transform="translate(-258.813 -66.312)"/><path class="ar" d="M273.476,74.88a.306.306,0,1,0-.356-.5,1.018,1.018,0,0,1-.808.238,1,1,0,0,1-.565-.459.306.306,0,0,0-.542.285,1.661,1.661,0,0,0,.807.721,1.423,1.423,0,0,0,.4,1.5.306.306,0,0,0,.393-.47.884.884,0,0,1-.177-.957A1.866,1.866,0,0,0,273.476,74.88Z" transform="translate(-259.372 -67.038)"/><path class="ar" d="M261.991,72.546a.306.306,0,0,0-.607.077.983.983,0,0,1-.47.865,1.915,1.915,0,0,0-1.067-.146.306.306,0,0,0,.105.6,1.154,1.154,0,0,1,.832.185.932.932,0,0,1,.254.761.306.306,0,0,0,.3.313h.007a.306.306,0,0,0,.306-.3,1.658,1.658,0,0,0-.261-1.012A1.5,1.5,0,0,0,261.991,72.546Z" transform="translate(-256.904 -66.672)"/><path class="ar" d="M258.776,70.292a.679.679,0,0,1-.147.216.964.964,0,0,1-.382.234.307.307,0,0,0,.081.6.282.282,0,0,0,.08-.011,1.594,1.594,0,0,0,.7-.443,1.167,1.167,0,0,0,.708.231,1.486,1.486,0,0,0,.225-.018,1.78,1.78,0,0,0,.635-.238.306.306,0,0,0-.333-.514,1.218,1.218,0,0,1-.4.147.582.582,0,0,1-.539-.157,1.689,1.689,0,0,0-.026-.879.306.306,0,0,0-.591.16,1.006,1.006,0,0,1-.006.656Z" transform="translate(-256.568 -66.023)"/><path class="ar" d="M267.721,67.216a1.6,1.6,0,0,0-1.137-.142.306.306,0,0,0,.163.591.968.968,0,0,1,.662.077.833.833,0,0,1,.356.557.305.305,0,0,0,.3.236.31.31,0,0,0,.071-.008.306.306,0,0,0,.227-.368A1.413,1.413,0,0,0,267.721,67.216Z" transform="translate(-258.346 -65.552)"/><path class="ar" d="M266.15,74.565a1.107,1.107,0,0,1-.937.6,1.583,1.583,0,0,1-.6-.09.306.306,0,0,0-.233.566,2.125,2.125,0,0,0,.758.138l.077,0a1.705,1.705,0,0,0,1.463-.9.306.306,0,0,0-.53-.308Z" transform="translate(-257.884 -67.127)"/><path class="ar" d="M269.347,76.852a.307.307,0,1,0-.386.447.306.306,0,0,0,.386-.447Z" transform="translate(-258.863 -67.618)"/><path class="ar" d="M264.784,65.575a.306.306,0,1,0,.113-.371A.309.309,0,0,0,264.784,65.575Z" transform="translate(-258.005 -65.152)"/><path class="ar" d="M266.125,77.091c.555-.512,1.74-.3.825-.055A2.279,2.279,0,0,1,266.125,77.091Z" transform="translate(-258.296 -67.63)"/><path class="at" d="M268.709,77.09c.146,0,.291-.007.444-.02a4.06,4.06,0,0,1-1.31.887,6.94,6.94,0,0,1-1.933,0l-.1,1.094-1.261.2-1.2-3.118-.305-.375s-2.183.257-2.647-.277a6.129,6.129,0,0,1-.838-1.732s-1.788.069-2.2-.679-.686-.88-.659-1.677a3.428,3.428,0,0,1,.367-1.67c.256-.485.007-.831.672-1.441.062-.056.118-.111.173-.16-.277,1.054-.291,2.384,1.22,2.73,2.606.61,1.684.492,2.253,2.217a3.26,3.26,0,0,0,2.729,2.175.793.793,0,0,0-.256.493c-.132,1.087,1.3,1.78,2.452,1.046S266.721,77.1,268.709,77.09Z" transform="translate(-256.286 -65.786)"/><path class="au" d="M262.667,67.894s-.433,1.561,1.64,2.514,2.511.678,3.267,2.05,3.3,2,3.7-.223-2.784-4.948-5.485-5.157C264.994,67.016,263.065,66.927,262.667,67.894Z" transform="translate(-257.551 -65.555)"/></g><path class="an" d="M264.118,109.237a3.459,3.459,0,0,1-3.458,3.347H180.976a3.466,3.466,0,0,1-3.465-3.464V56.071a3.466,3.466,0,0,1,3.465-3.465h.8v53.167a3.466,3.466,0,0,0,3.465,3.464Z" transform="translate(-177.511 -52.606)"/></g><g transform="translate(232.049 50.26)"><path class="av" d="M348.777,114.335h20.268a4.4,4.4,0,0,1,4.607,4.168v13.334A4.4,4.4,0,0,1,369.045,136H351l-5.252,4.758a.978.978,0,0,1-.654.242.882.882,0,0,1-.923-.832V118.5A4.4,4.4,0,0,1,348.777,114.335Z" transform="translate(-344.17 -114.335)"/><g transform="translate(6.228 5.151)"><rect class="ab" width="18.116" height="2.026" rx="0.516"/><rect class="ab" width="18.116" height="2.026" rx="0.516" transform="translate(0 4.342)"/><rect class="ab" width="18.116" height="2.026" rx="0.516" transform="translate(0 8.684)"/></g></g><g transform="translate(234.903 19.532)"><path class="v" d="M369.344,83.963a7.219,7.219,0,0,1-.1,1.177,7.074,7.074,0,0,1-.315,1.222,9.862,9.862,0,0,1-1.7,2.9,42.725,42.725,0,0,1-4.983,4.8c-.1.082-.2.172-.3.257-.729.64-1.563,1.36-2.423,2.13a1.22,1.22,0,0,1-1.643,0c-.862-.769-1.695-1.49-2.424-2.125-1.75-1.527-3.305-2.88-4.521-4.19-.271-.293-.526-.587-.762-.876-.1-.118-.187-.232-.275-.346a7.965,7.965,0,0,1-1.838-4.952,6.881,6.881,0,0,1,1.69-4.638,5.73,5.73,0,0,1,4.254-1.894,5.292,5.292,0,0,1,3.345,1.181,6.9,6.9,0,0,1,1.352,1.442,6.859,6.859,0,0,1,1.352-1.442,5.289,5.289,0,0,1,3.345-1.181,5.655,5.655,0,0,1,4.253,1.894A6.877,6.877,0,0,1,369.344,83.963Z" transform="translate(-348.063 -77.431)"/><path class="ab" d="M369.746,86.613a7.077,7.077,0,0,1-.315,1.222h-3.357l-1.032,2.814a.992.992,0,0,1-.833.651.978.978,0,0,1-.793-.277l-.8,2.154a.984.984,0,0,1-.928.66.386.386,0,0,1-.068,0,.992.992,0,0,1-.906-.782l-.953-4.142a.994.994,0,0,1-.953.46,1,1,0,0,1-.845-.745l-.63-2.354-1.052,5.836a1.009,1.009,0,0,1-.674.782.974.974,0,0,1-.992-.228l-1.089-1.05h-2.093c-.271-.293-.526-.587-.762-.876-.1-.118-.187-.232-.275-.346h3.209a.972.972,0,0,1,.685.277l.881.851,1.144-6.345a.992.992,0,0,1,1.942-.082l.729,2.729a.991.991,0,0,1,1.822.3l.917,4,.7-1.881a1,1,0,0,1,.833-.652.971.971,0,0,1,.789.277l.958-2.593a1,1,0,0,1,.932-.66Z" transform="translate(-348.561 -78.904)"/><path class="aw" d="M362.247,94.385c-.1.082-.2.172-.3.257-.729.64-1.563,1.36-2.423,2.13a1.22,1.22,0,0,1-1.643,0c-.862-.769-1.695-1.49-2.424-2.125-1.75-1.527-3.305-2.88-4.521-4.19-.271-.293-.526-.587-.762-.876-.1-.118-.187-.232-.275-.346a7.965,7.965,0,0,1-1.838-4.952,6.881,6.881,0,0,1,1.69-4.638,5.663,5.663,0,0,1,.777-.717c-.781,2.794-.8,7.257,4.2,11.866C357.575,93.416,360.123,94.324,362.247,94.385Z" transform="translate(-348.063 -77.75)"/><path class="ax" d="M364.849,79.877a1.75,1.75,0,0,0-.637.33,3.093,3.093,0,0,0-.534,3.717c1.412,2.714,6.462,2.024,6.4-.548-.032-1.247-1.131-2.051-2.122-2.554C367.046,80.363,365.894,79.59,364.849,79.877Z" transform="translate(-351.311 -77.939)"/></g><g transform="translate(192.916 3.045)"><path class="ay" d="M321.8,68.7v.829a1.428,1.428,0,0,1-1.316,1.519H298.783a1.428,1.428,0,0,1-1.316-1.519V68.7a1.428,1.428,0,0,1,1.316-1.518h21.705A1.428,1.428,0,0,1,321.8,68.7Z" transform="translate(-297.467 -58.759)"/><path class="az" d="M320.111,72.1a11.477,11.477,0,0,1-3.928,6.508,9.339,9.339,0,0,1-5.907,2.143c-4.746,0-8.729-3.688-9.823-8.651Z" transform="translate(-298.104 -59.806)"/><path class="ba" d="M318.218,82.924v.013a1.424,1.424,0,0,1-1.316,1.519H304.876a1.431,1.431,0,0,1-1.316-1.519v-.013a1.44,1.44,0,0,1,1.316-1.519H316.9A1.432,1.432,0,0,1,318.218,82.924Z" transform="translate(-298.766 -61.791)"/><path class="ba" d="M316.183,78.6a9.339,9.339,0,0,1-5.907,2.143c-4.746,0-8.729-3.688-9.823-8.651H315.84c-5.232.115-11.659.549-11.781,2.016C303.882,76.257,310.508,78.209,316.183,78.6Z" transform="translate(-298.104 -59.806)"/><path class="ay" d="M318.218,82.924v.013H303.56v-.013a1.44,1.44,0,0,1,1.316-1.519H316.9A1.432,1.432,0,0,1,318.218,82.924Z" transform="translate(-298.766 -61.791)"/><rect class="ab" width="14.381" height="1.158" transform="translate(7.333 9.2)"/><path class="ba" d="M312.875,65.817l5.443-5.047,2.766,1.122-2.627,3.925Z" transform="translate(-300.752 -57.391)"/><ellipse class="az" cx="2.655" cy="3.062" rx="2.655" ry="3.062" transform="translate(16.797)"/></g><g transform="translate(58.335 35.922)"><path class="bb" d="M140.8,99.756h-3.963a.747.747,0,0,1-.747-.747h0a.747.747,0,0,1,.747-.747H140.8a.747.747,0,0,1,.747.747h0A.747.747,0,0,1,140.8,99.756Z" transform="translate(-136.092 -98.262)"/></g><g transform="translate(49.05 33.095)"><path class="f" d="M149.5,94.669H129.236a4.4,4.4,0,0,0-4.607,4.168V112.17a4.4,4.4,0,0,0,4.607,4.168h18.047l5.252,4.758a.977.977,0,0,0,.654.242.882.882,0,0,0,.923-.832V98.837A4.4,4.4,0,0,0,149.5,94.669Z" transform="translate(-124.629 -94.669)"/><g transform="translate(6.879 7.005)"><path class="bb" d="M143.094,107.1v6.569a1.906,1.906,0,0,1-.083.561,2.076,2.076,0,0,1-2,1.518h-5.564a2.08,2.08,0,0,1-2.079-2.079v-6.375a2.058,2.058,0,0,1,.45-1.3,1.886,1.886,0,0,1,.153-.173l1.642-1.643a2.089,2.089,0,0,1,1.469-.609h2.481a2.076,2.076,0,0,1,1.469.609l1.448,1.448A2.078,2.078,0,0,1,143.094,107.1Z" transform="translate(-133.372 -103.572)"/></g><g transform="translate(9.948 4.323)"><path class="bc" d="M140.869,100.163V102.9l-3.6-.055v-2.682Z" transform="translate(-137.273 -100.163)"/></g><path class="ap" d="M140.849,107.832h-.932V106.9a.518.518,0,0,0-.518-.518h-.87a.518.518,0,0,0-.518.518v.933h-.933a.518.518,0,0,0-.518.518v.87a.518.518,0,0,0,.518.518h.933v.933a.517.517,0,0,0,.518.517h.87a.517.517,0,0,0,.518-.517v-.933h.932a.518.518,0,0,0,.518-.518v-.87A.518.518,0,0,0,140.849,107.832Z" transform="translate(-127.173 -97.166)"/><g transform="translate(11.379 14.022)"><path class="bd" d="M139.092,115.8a3.789,3.789,0,0,1,.974-2.165,4.339,4.339,0,0,1,2.382-1.147c.027,0-.061,1.2-.079,1.315a2.26,2.26,0,0,1-1.176,1.807A4.316,4.316,0,0,1,139.092,115.8Z" transform="translate(-139.092 -112.491)"/></g><g transform="translate(8.344 14.996)"><path class="be" d="M138.269,116.067a2.656,2.656,0,0,1-2.187-.411,2.354,2.354,0,0,1-.844-1.927,3.207,3.207,0,0,1,1.927.693A6.306,6.306,0,0,1,138.269,116.067Z" transform="translate(-135.234 -113.729)"/></g><path class="bf" d="M143.01,114.885a2.076,2.076,0,0,1-2,1.518h-5.564a2.08,2.08,0,0,1-2.079-2.079V107.95a2.058,2.058,0,0,1,.45-1.3c-.506,2.841-.79,8.1,4.054,8.1C140.474,114.754,142.054,114.816,143.01,114.885Z" transform="translate(-126.493 -97.224)"/><path class="bg" d="M137.772,101.375c-.035.88,1.629,1.164,3.1,1.241v.284l-3.6-.055v-2.682h3.6v.3C139.865,100.357,137.821,100.184,137.772,101.375Z" transform="translate(-127.325 -95.84)"/><g transform="translate(17.711 12.124)"><path class="ab" d="M149.134,115.906a3.135,3.135,0,0,0,3.272-.431.626.626,0,0,0,.129-.129,3.135,3.135,0,0,0,.432-3.273.509.509,0,0,0-.817-.135L149,115.089A.509.509,0,0,0,149.134,115.906Z" transform="translate(-147.504 -110.443)"/><path class="bh" d="M151.171,110.323a3.134,3.134,0,0,0-3.188.47.623.623,0,0,0-.128.129,3.133,3.133,0,0,0-.47,3.188.508.508,0,0,0,.821.145l3.11-3.11A.508.508,0,0,0,151.171,110.323Z" transform="translate(-147.139 -110.078)"/></g></g><g transform="translate(18.679 72.612)"><path class="v" d="M114.4,141.789H94.133a4.4,4.4,0,0,0-4.607,4.168v13.334a4.4,4.4,0,0,0,4.607,4.167h18.047l5.252,4.758a.977.977,0,0,0,.654.242.882.882,0,0,0,.923-.832V145.957A4.4,4.4,0,0,0,114.4,141.789Z" transform="translate(-89.526 -141.789)"/><g transform="translate(6.74 3.413)"><path class="ab" d="M106.373,146.127h1.778a.594.594,0,0,1,.593.593v2.439a.59.59,0,0,0,.589.592c1.257-.006,4.065.323,3.757,3.439-.395,4-5.235,6.618-7.557,6.421s-3.8-1.482-4.1-.84.247,1.433-.3,1.877-2.717.643-2.914-.543-.247-2.42.395-3.013c.405-.374.771-.747.986-.973a.587.587,0,0,0,.157-.489c-.07-.522-.158-1.623.29-1.847.592-.3,2.223-.345,2.223.2v.478a.59.59,0,0,0,.741.574,2.608,2.608,0,0,0,1.679-1.2c.642-1.235.79-1.037,1.234-.544a2.261,2.261,0,0,1,.84,2.075c-.028.1-.059.2-.09.284a.593.593,0,0,0,.553.8h2.4s.3-1.037-.494-1.136-1.581.2-1.581-.691a1.934,1.934,0,0,0-.988-1.927l-.511-.319a.594.594,0,0,1-.279-.5V146.72A.593.593,0,0,1,106.373,146.127Z" transform="translate(-98.092 -146.127)"/><g class="bi" transform="translate(1.563 1.532)"><path class="ab" d="M102.327,154.1h-1.778a.469.469,0,0,1-.47-.469h0a.469.469,0,0,1,.47-.469h1.778a.469.469,0,0,1,.469.469h0A.469.469,0,0,1,102.327,154.1Z" transform="translate(-100.079 -149.158)"/><path class="ab" d="M102.2,151.714l-1.463-1.011a.469.469,0,0,1-.119-.653h0a.469.469,0,0,1,.652-.119l1.463,1.011a.47.47,0,0,1,.119.653h0A.47.47,0,0,1,102.2,151.714Z" transform="translate(-100.175 -148.452)"/><path class="ab" d="M104.695,150.321v-1.778a.469.469,0,0,1,.469-.469h0a.469.469,0,0,1,.47.469v1.778a.469.469,0,0,1-.47.469h0A.469.469,0,0,1,104.695,150.321Z" transform="translate(-101.063 -148.074)"/></g></g></g><g transform="translate(279.781 77.47)"><path class="bj" d="M402.208,168.6l2.84-2.84,2.544,2.545-2.84,2.84Z" transform="translate(-401.328 -151.67)"/><path class="bk" d="M401.264,169.986l2.552,2.552a.6.6,0,0,0,.843-.843l-2.552-2.552a.6.6,0,0,0-.843.843Z" transform="translate(-401.089 -152.353)"/><path class="bl" d="M422.445,150.563l2.537-2.537a.6.6,0,0,1,.843.844l-2.542,2.542a1.179,1.179,0,0,0-.15-.183,6.343,6.343,0,0,0-.688-.666Z" transform="translate(-405.642 -147.851)"/><path class="bm" d="M419.172,152.058l.888-.889a1.4,1.4,0,0,1,1.977,0l.539.539a1.4,1.4,0,0,1,0,1.978l-.88.88a1.991,1.991,0,0,0-.338-.448l-1.7-1.7A2.017,2.017,0,0,0,419.172,152.058Z" transform="translate(-404.945 -148.471)"/><path class="bn" d="M405.093,161.106c.024-.024,1.826-1.825,3.772-3.779l1.289-1.29c3.395-3.387,1.778-1.769,3.531-3.523a2.2,2.2,0,0,1,3.116,0l1.7,1.7a2.209,2.209,0,0,1,0,3.115l-4.821,4.812-2.659,2.666-1.113,1.113Z" transform="translate(-401.943 -148.707)"/><path class="bo" d="M409.887,157.327l.9-.9c.136-.136.272-.264.392-.393,3.395-3.387,1.778-1.769,3.531-3.523a2.2,2.2,0,0,1,3.116,0l1.7,1.7a2.209,2.209,0,0,1,0,3.115l-4.821,4.812Z" transform="translate(-402.965 -148.707)"/><g transform="translate(8.173 4.828)"><path class="bp" d="M411.477,156.993l.843-.843,1.511,1.511a.6.6,0,1,1-.843.843Z" transform="translate(-411.477 -154.448)"/><path class="bp" d="M413.639,154.831l.843-.844,1.479,1.479a.6.6,0,0,1-.843.843Z" transform="translate(-411.938 -153.987)"/></g><path class="bn" d="M403.29,163.364l6.234,6.235a.6.6,0,0,0,.843-.843l-6.234-6.235a.6.6,0,0,0-.843.843Z" transform="translate(-401.521 -150.942)"/><path class="bq" d="M405.093,161.106c.024-.024,1.826-1.825,3.772-3.779l1.289-1.29c3.395-3.387,1.778-1.769,3.531-3.523a2.2,2.2,0,0,1,3.116,0l.936.937a9.153,9.153,0,0,0-5.093,3.05,8.308,8.308,0,0,0-1.777,2.827,7.8,7.8,0,0,0,.152,5.477l-1.113,1.113Z" transform="translate(-401.943 -148.707)"/></g><g transform="translate(29.578 14.799)"><g transform="translate(162.368 76.753)"><circle class="ab" cx="2.792" cy="2.792" r="2.792"/></g><g transform="translate(236.633 65.912)"><circle class="bb" cx="2.792" cy="2.792" r="2.792"/></g><g transform="translate(263.545 96.716)"><circle class="bb" cx="2.792" cy="2.792" r="2.792"/></g><g transform="translate(154.884 54.228)"><circle class="ab" cx="1.974" cy="1.974" r="1.974"/></g><g transform="translate(257.7 116.634)"><path class="bb" d="M414.567,221.629a1.974,1.974,0,1,1-1.974-1.973A1.974,1.974,0,0,1,414.567,221.629Z" transform="translate(-410.619 -219.656)"/></g><g transform="translate(270.779 129.618)"><path class="bb" d="M431.19,238.133a1.974,1.974,0,1,1-1.974-1.974A1.974,1.974,0,0,1,431.19,238.133Z" transform="translate(-427.242 -236.159)"/></g><g transform="translate(177.609 24.392)"><circle class="ab" cx="1.974" cy="1.974" r="1.974"/></g><g transform="translate(248 32.611)"><path class="bb" d="M402.237,114.838a1.974,1.974,0,1,1-1.973-1.974A1.973,1.973,0,0,1,402.237,114.838Z" transform="translate(-398.29 -112.864)"/></g><g transform="translate(29.486 72.453)"><circle class="ab" cx="1.974" cy="1.974" r="1.974"/></g><g transform="translate(37.975 52.267)"><path class="ab" d="M155.593,139.82a1.974,1.974,0,1,1-1.974-1.974A1.974,1.974,0,0,1,155.593,139.82Z" transform="translate(-151.645 -137.846)"/></g><g transform="translate(0 30.609)"><path class="bb" d="M107.327,112.293a1.974,1.974,0,1,1-1.974-1.974A1.975,1.975,0,0,1,107.327,112.293Z" transform="translate(-103.379 -110.319)"/></g><g transform="translate(41.344)"><circle class="bb" cx="2.611" cy="2.611" r="2.611"/></g></g><g transform="translate(270.387 165.282)"><path class="bk" d="M394.391,320.178l.5,1.431,2.9,8.193.789,2.24h14.656l3.49-11.864Z" transform="translate(-390.268 -267.787)"/><rect class="bj" width="27.099" height="4.655" rx="2.327" transform="translate(1.911 47.736)"/><path class="br" d="M389.547,287.568c1.744,4.1,2.91,5.256,2.331,9.561-.02.147-.042.293-.056.433-.4,3.476.279,6.03,3.071,6.567a3.735,3.735,0,0,1-.223-3.978c1.507-2.205,2.205-3.489,2.555-7.691s1.046-5.8,4.425-7.886a4.025,4.025,0,0,0,.823-.7,4.846,4.846,0,0,0-1.87-4.194c-.007-.007-.02-.014-.027-.02-3.8-2.666-2.422-5.57-5.444-7.189s-5.464-1.633-4.069,4.418S387.8,283.471,389.547,287.568Z" transform="translate(-389.15 -257.418)"/><path class="g" d="M396.255,300.3a6.605,6.605,0,0,0,.7,1.026l21.453.342s5.186-1.507,4.488-5.458a15.831,15.831,0,0,0-.622-2.24c-1.235-3.587-3.308-7.8.035-11.139a10.192,10.192,0,0,0,3.287-9.058v-.007a26.257,26.257,0,0,0-.426-2.6c-.056-.286-.119-.572-.181-.865-1.047-4.689,1.277-7.837,1.744-10.447s-4.438-9.9-8.326-4.048-4.822,8.7-8.075,11.236c-2.972,2.3-3.817,10.071-6.5,13a4.026,4.026,0,0,1-.823.7c-3.378,2.087-4.076,3.678-4.425,7.886a14.2,14.2,0,0,1-1.312,5.667,17.891,17.891,0,0,1-1.242,2.024A3.735,3.735,0,0,0,396.255,300.3Z" transform="translate(-390.512 -253.59)"/><path class="br" d="M429.044,297.6a25.28,25.28,0,0,1,2.938-2.673,8.221,8.221,0,0,1,.824-.559c3.141-1.856,5.464.586,3.141-6.043s3.6-7.328,4.648-10.357.119-10.349-5.695-6.043a17.285,17.285,0,0,0-2.959,2.875c.028.147.063.293.084.44.81,4.1.747,7.537-2.946,11.222C425.737,289.8,427.809,294.01,429.044,297.6Z" transform="translate(-397.277 -257.216)"/><path class="j" d="M395.844,304.9a6.263,6.263,0,0,0,.411.865,6.6,6.6,0,0,0,.7,1.026l21.453.342s5.186-1.507,4.488-5.458a12.944,12.944,0,0,0-.412-1.6c-.063-.209-.132-.426-.209-.642-1.235-3.587-3.308-7.8.035-11.139a10.192,10.192,0,0,0,3.287-9.058,5.015,5.015,0,0,1-1.946,2.254c-3.664,2.094-8.843,6.281-6.686,13.434s-3.273,1.263-6.574,5.15-4.187,2.352-9.6.781c-1.487-.432-2.618-.865-3.525-1.1a17.9,17.9,0,0,1-1.242,2.024A3.271,3.271,0,0,0,395.844,304.9Z" transform="translate(-390.513 -259.059)"/><path class="bs" d="M395.589,306.328a3.735,3.735,0,0,1-.223-3.978c1.507-2.205,2.205-3.489,2.555-7.691s1.046-5.8,4.425-7.886a4.026,4.026,0,0,0,.823-.7,4.846,4.846,0,0,0-1.87-4.194c-.007-.007-.02-.014-.027-.02a10.818,10.818,0,0,1-3.175,4.034c-4.418,3.489-1.222,7.327-4.125,12.387a3.5,3.5,0,0,1-1.452,1.479C392.12,303.236,392.8,305.79,395.589,306.328Z" transform="translate(-389.846 -259.617)"/><path class="bt" d="M429.044,298.854a25.274,25.274,0,0,1,2.938-2.673,6.134,6.134,0,0,1-.028-3.113c1.675-8.814,6.093-12.3,1.577-15.8a5.052,5.052,0,0,0-1.507-.775c.81,4.1.747,7.537-2.946,11.222C425.737,291.058,427.809,295.267,429.044,298.854Z" transform="translate(-397.277 -258.473)"/><path class="bu" d="M426.787,258.282a3.693,3.693,0,0,1-.482,2.644c-1.34,2.551-2.756,5.064-4.2,7.556q-4.334,7.481-9.191,14.642c-1.252-4.024-.507-8.463,1.221-12.307a47.525,47.525,0,0,1,7.054-10.445,8.615,8.615,0,0,1,2.675-2.434C425.587,257.092,426.511,257.431,426.787,258.282Z" transform="translate(-394.084 -254.413)"/><g class="bv" transform="translate(4.82 11.678)"><path class="bk" d="M407.069,287.462c.1.077,1.049.855,2.326,4.206a22.256,22.256,0,0,1,1.1,3.778c1.126-3.725,2.541-8.07,4.065-11.939a115.886,115.886,0,0,1,7-14.9.349.349,0,1,1,.6.356,113.282,113.282,0,0,0-6.493,13.654c1.433-1.024,4.11-2.756,6.15-3.011l2.792-.349a.349.349,0,0,1,.087.692l-2.792.349c-2.472.308-6.184,3.131-6.732,3.557a207.469,207.469,0,0,0-6.524,20.725.348.348,0,0,1-.337.264.356.356,0,0,1-.086-.011.348.348,0,0,1-.253-.424c.015-.06.8-3.122,2.028-7.308a17.233,17.233,0,0,0-1.26-5.18c-1.205-3.159-2.089-3.893-2.094-3.9a.349.349,0,0,1,.419-.559Z" transform="translate(-397.672 -268.433)"/><path class="bk" d="M395.544,276.721a.345.345,0,0,1,.42.26l1.493,6.322a48.8,48.8,0,0,1,1.229,12.039.348.348,0,0,1-.348.332h-.017a.348.348,0,0,1-.331-.365,48.113,48.113,0,0,0-1.212-11.844l-1.493-6.322A.349.349,0,0,1,395.544,276.721Z" transform="translate(-395.276 -270.198)"/><path class="bw" d="M435.9,278.823a.349.349,0,0,1,.622.319l-8.445,16.467a.349.349,0,0,1-.311.19.364.364,0,0,1-.16-.038.35.35,0,0,1-.151-.471Z" transform="translate(-402.128 -270.608)"/></g><path class="bx" d="M391.58,316.586h27.1a2.323,2.323,0,0,0-2.323-2.324H393.9A2.323,2.323,0,0,0,391.58,316.586Z" transform="translate(-389.668 -266.526)"/><path class="by" d="M404.657,330.1a28.172,28.172,0,0,1-6.867-.293l.789,2.241h14.655l3.489-11.864H394.391l.5,1.43c3.866.447,10.873,1.165,14.265.977C413.988,322.328,410.674,329.747,404.657,330.1Z" transform="translate(-390.268 -267.787)"/></g></g></g></svg>