<svg xmlns="http://www.w3.org/2000/svg" xmlns:xlink="http://www.w3.org/1999/xlink" width="269.488" height="265.055" viewBox="0 0 269.488 265.055"><defs><style>.a{fill:url(#a);}.b{fill:url(#b);}.c{fill:url(#c);}.d{fill:#f0f4f9;}.e{clip-path:url(#e);}.ao,.f{fill:#fff;}.f{opacity:0.7;mix-blend-mode:soft-light;}.aq,.ar,.as,.az,.bm,.f{isolation:isolate;}.g{clip-path:url(#g);}.h{clip-path:url(#i);}.i{fill:url(#j);}.j{fill:url(#k);}.k{fill:url(#l);}.l{fill:url(#m);}.m{fill:url(#n);}.n{fill:url(#o);}.o{fill:url(#p);}.p{fill:url(#q);}.q{fill:url(#r);}.r{fill:url(#s);}.s{fill:url(#t);}.t{fill:url(#u);}.u{fill:url(#v);}.v{fill:url(#w);}.w{fill:url(#x);}.x{fill:url(#y);}.y{fill:url(#z);}.z{fill:url(#aa);}.aa{fill:url(#ab);}.ab{fill:url(#ac);}.ac{fill:url(#ad);}.ad{fill:url(#ae);}.ae{fill:url(#af);}.af{fill:url(#ag);}.ag{fill:#ced6e3;}.ah{fill:url(#ah);}.ai{fill:url(#ai);}.aj{fill:url(#aj);}.ak{fill:url(#ak);}.al{fill:url(#al);}.am{fill:url(#am);}.an{fill:url(#an);}.ap{fill:url(#ao);}.aq,.az,.bm{opacity:0.3;}.aq,.ar,.as,.az,.bm{mix-blend-mode:multiply;}.aq{fill:url(#ap);}.ar,.as{opacity:0.15;}.ar{fill:url(#aq);}.at{fill:url(#ar);}.au{fill:url(#as);}.av{fill:url(#at);}.aw{fill:url(#au);}.ax{fill:url(#av);}.ay{fill:url(#aw);}.az{fill:url(#ax);}.ba{fill:url(#ay);}.bb{fill:url(#az);}.bc{fill:url(#ba);}.bd{fill:url(#bb);}.be{fill:url(#bc);}.bf{fill:url(#bd);}.bg{fill:url(#be);}.bh{fill:url(#bf);}.bi{fill:url(#bg);}.bj{fill:url(#bh);}.bk{fill:url(#bi);}.bl{fill:url(#bj);}.bm{fill:url(#bk);}.bn{fill:url(#bl);}.bo{fill:url(#bm);}</style><linearGradient id="a" x1="0.339" y1="0.121" x2="0.551" y2="0.624" gradientUnits="objectBoundingBox"><stop offset="0.004" stop-color="#c07db3"/><stop offset="1" stop-color="#655ea6"/></linearGradient><linearGradient id="b" x1="0.387" y1="0.329" x2="0.666" y2="0.751" xlink:href="#a"/><linearGradient id="c" x1="3.253" y1="-0.263" x2="4.128" y2="-0.263" xlink:href="#a"/><clipPath id="e"><path class="a" d="M207.384,212.96c-4.236-9.451,2.434-23.688,9.567-31.67,8.327-9.319,13.943-6.373,19.855-14.124,11.009-14.434-3.943-30.568,6-46,8.132-12.618,21.211-6.624,29.579-21.007,6.039-10.379,2.132-18.489,10.367-25.791.7-.625,8.391-7.247,16.6-5,8.287,2.27,12.262,12.251,13.187,18.944,1.71,12.37-6.741,15.35-10.095,30.759-4.566,20.979,8.4,27.874,1.841,42.626-5.413,12.183-15.5,10.29-21.234,23.917-5.325,12.653,1.439,18.883-2.958,27.052C269.985,231.46,216.025,232.236,207.384,212.96Z" transform="translate(-206.06 -68.903)"/></clipPath><clipPath id="g"><path class="b" d="M274.726,227.157c-3.1-6.923,1.783-17.352,7.007-23.2,6.1-6.827,10.214-4.668,14.545-10.347,8.065-10.572-2.889-22.392,4.4-33.7,5.957-9.244,15.537-4.852,21.668-15.389,4.424-7.6,1.563-13.544,7.594-18.893.515-.457,6.147-5.308,12.163-3.661,6.071,1.663,8.982,8.975,9.66,13.878,1.253,9.063-4.938,11.245-7.395,22.533-3.345,15.368,6.151,20.419,1.349,31.225-3.965,8.924-11.355,7.538-15.554,17.52-3.9,9.269,1.054,13.832-2.167,19.817C320.582,240.71,281.056,241.278,274.726,227.157Z" transform="translate(-273.756 -121.63)"/></clipPath><clipPath id="i"><path class="c" d="M199.12,214.289c-9.875-5.54-13.835-18.977-13.064-29.21,1.191-15.793,13.137-17.058,16.387-33.815,3.458-17.819-8.784-22.913-4.782-39.731,3.666-15.4,14.43-13.212,21.219-31.094,6.826-17.982-1.456-26.6,7.865-40.782,1.777-2.7,9.083-13.821,19.714-13.442,8.895.317,16.065,8.536,18.644,15.917,2.917,8.347-1.261,12.121-2.43,26.191-1.6,19.221,5.532,20.209,2.81,33.085-3.637,17.209-16.967,19.422-16.926,33.522.027,9.483,6.576,10.218,9.2,21.61,3.747,16.28-5.047,34.673-17.082,45.562C239.093,203.532,216.106,223.819,199.12,214.289Z" transform="translate(-185.962 -26.205)"/></clipPath><linearGradient id="j" x1="1.354" y1="0.748" x2="0.503" y2="0.517" gradientUnits="objectBoundingBox"><stop offset="0" stop-color="#ced6e3"/><stop offset="1" stop-color="#fff"/></linearGradient><linearGradient id="k" x1="-0.028" y1="0.033" x2="1.149" y2="1.099" gradientUnits="objectBoundingBox"><stop offset="0" stop-color="#2a3b7b"/><stop offset="0.996" stop-color="#161d3f"/></linearGradient><linearGradient id="l" x1="-16.057" y1="-1.016" x2="-11.557" y2="11.75" gradientUnits="objectBoundingBox"><stop offset="0" stop-color="#f17973"/><stop offset="1" stop-color="#e15a9c"/></linearGradient><linearGradient id="m" x1="-9.957" y1="-0.79" x2="-10.405" y2="2.972" xlink:href="#l"/><linearGradient id="n" x1="-15.585" y1="-2.363" x2="-12.55" y2="7.205" xlink:href="#l"/><linearGradient id="o" x1="-11.283" y1="-0.724" x2="-11.758" y2="3.005" xlink:href="#l"/><linearGradient id="p" x1="0.463" y1="0.008" x2="1.43" y2="1.552" xlink:href="#l"/><linearGradient id="q" x1="-1.835" y1="0.644" x2="-0.834" y2="0.644" gradientUnits="objectBoundingBox"><stop offset="0" stop-color="#971f5b"/><stop offset="1" stop-color="#651f2f"/></linearGradient><linearGradient id="r" x1="-38.619" y1="2.042" x2="-38.964" y2="5.812" gradientUnits="objectBoundingBox"><stop offset="0" stop-color="#211235"/><stop offset="1" stop-color="#522b64"/></linearGradient><linearGradient id="s" x1="-23.049" y1="1.675" x2="-23.306" y2="5.846" xlink:href="#r"/><linearGradient id="t" x1="-60.125" y1="4.706" x2="-60.38" y2="8.264" xlink:href="#r"/><linearGradient id="u" x1="-30.884" y1="1.849" x2="-31.176" y2="5.589" xlink:href="#r"/><linearGradient id="v" x1="-65.203" y1="3.626" x2="-65.55" y2="7.2" xlink:href="#r"/><linearGradient id="w" x1="-50.2" y1="4.314" x2="-50.424" y2="7.726" xlink:href="#r"/><linearGradient id="x" x1="-36.096" y1="1.264" x2="-36.561" y2="5.153" xlink:href="#r"/><linearGradient id="y" x1="-51.111" y1="2.325" x2="-51.52" y2="6.072" xlink:href="#r"/><linearGradient id="z" x1="-57.86" y1="0.568" x2="-59.024" y2="4.321" xlink:href="#r"/><linearGradient id="aa" x1="-64.342" y1="1.214" x2="-65.171" y2="4.915" xlink:href="#r"/><linearGradient id="ab" x1="-31.243" y1="2.389" x2="-31.473" y2="5.703" xlink:href="#r"/><linearGradient id="ac" x1="-61.574" y1="1.476" x2="-62.262" y2="5.143" xlink:href="#r"/><linearGradient id="ad" x1="-67.388" y1="3.135" x2="-67.797" y2="6.734" xlink:href="#r"/><linearGradient id="ae" x1="-828.6" y1="-1406.229" x2="-828.952" y2="-1402.97" xlink:href="#r"/><linearGradient id="af" x1="-102.755" y1="77.457" x2="-103.225" y2="81.247" xlink:href="#r"/><linearGradient id="ag" x1="-0.231" y1="-16.246" x2="1.056" y2="13.23" xlink:href="#k"/><linearGradient id="ah" x1="0.402" y1="-3.523" x2="0.634" y2="6.385" xlink:href="#k"/><linearGradient id="ai" x1="0.561" y1="1.882" x2="0.206" y2="-8.957" gradientUnits="objectBoundingBox"><stop offset="0" stop-color="#ffb62f"/><stop offset="0.996" stop-color="#ee5643"/></linearGradient><linearGradient id="aj" x1="0.365" y1="-1.189" x2="0.664" y2="2.684" xlink:href="#k"/><linearGradient id="ak" x1="0.527" y1="1.268" x2="0.349" y2="-3.814" xlink:href="#ai"/><linearGradient id="al" x1="-0.055" y1="0.668" x2="0.95" y2="0.31" xlink:href="#k"/><linearGradient id="am" x1="-49.157" y1="11.254" x2="-48.425" y2="17.4" xlink:href="#ai"/><linearGradient id="an" x1="-0.132" y1="0.737" x2="1.486" y2="0.111" xlink:href="#k"/><linearGradient id="ao" x1="0.61" y1="0.683" x2="0.394" y2="0.44" xlink:href="#k"/><linearGradient id="ap" x1="-0.295" y1="0.693" x2="1.109" y2="0.332" xlink:href="#k"/><linearGradient id="aq" y1="0.5" x2="1" y2="0.5" gradientUnits="objectBoundingBox"><stop offset="0" stop-color="#7c6daf"/><stop offset="0.996" stop-color="#4253a0"/></linearGradient><linearGradient id="ar" x1="0.315" y1="-0.146" x2="0.528" y2="0.812" xlink:href="#aq"/><linearGradient id="as" x1="0.47" y1="0.256" x2="1.308" y2="5.392" xlink:href="#aq"/><linearGradient id="at" x1="0.463" y1="0.967" x2="1.155" y2="-0.8" xlink:href="#ai"/><linearGradient id="au" x1="0.192" y1="0.615" x2="3.888" y2="-1.369" xlink:href="#ai"/><linearGradient id="av" x1="0.291" y1="2.309" x2="0.388" y2="1.469" xlink:href="#l"/><linearGradient id="aw" x1="0.465" y1="0.265" x2="1.389" y2="6.348" xlink:href="#ai"/><linearGradient id="ax" x1="0.17" y1="2.358" x2="0.325" y2="1.492" xlink:href="#l"/><linearGradient id="ay" x1="9.521" y1="-6.06" x2="9.626" y2="-5.01" xlink:href="#k"/><linearGradient id="az" x1="-305.378" y1="-64.244" x2="-305.14" y2="-56.546" xlink:href="#k"/><linearGradient id="ba" x1="-590.904" y1="-12.518" x2="-588.097" y2="-18.979" xlink:href="#ai"/><linearGradient id="bb" x1="-99.679" y1="3.31" x2="-99.734" y2="2.804" gradientUnits="objectBoundingBox"><stop offset="0" stop-color="#211235"/><stop offset="1" stop-color="#722a65"/></linearGradient><linearGradient id="bc" x1="-302.147" y1="-63.809" x2="-301.909" y2="-56.112" xlink:href="#k"/><linearGradient id="bd" x1="-582.095" y1="-12.045" x2="-579.288" y2="-18.506" xlink:href="#ai"/><linearGradient id="be" x1="-98.183" y1="3.29" x2="-98.237" y2="2.784" xlink:href="#bb"/><linearGradient id="bf" x1="-47.398" y1="0.066" x2="-47.284" y2="-0.646" xlink:href="#a"/><linearGradient id="bg" x1="0.378" y1="1.875" x2="0.789" y2="-1.482" xlink:href="#ai"/><linearGradient id="bh" x1="0.751" y1="1.146" x2="-0.484" y2="-1.965" xlink:href="#ai"/><linearGradient id="bi" x1="0.727" y1="-0.511" x2="0.112" y2="2.637" xlink:href="#ai"/><linearGradient id="bj" x1="0.619" y1="0.125" x2="0.025" y2="3.308" xlink:href="#ai"/><linearGradient id="bk" x1="-52.665" y1="-0.205" x2="-52.538" y2="-1.129" xlink:href="#a"/><linearGradient id="bl" x1="0.383" y1="1.487" x2="0.573" y2="0.274" xlink:href="#a"/><linearGradient id="bm" x1="0.337" y1="1.633" x2="0.573" y2="0.336" xlink:href="#a"/></defs><g transform="translate(-25.33 -26.205)"><path class="d" d="M281.59,212.74c-13.311,35.42-40.913,54.006-51.478,60.279C175.677,305.335,93.964,295.455,52.194,243.6c-26.747-33.2-27.1-71.2-26.824-82.026,1.478-58.762,44.765-123.5,108.591-132.78,70.655-10.27,119.174,51.893,123.881,58.14C263.542,94.5,304.762,151.078,281.59,212.74Z" transform="translate(0 -0.333)"/><g transform="translate(149.036 26.205)"><g transform="translate(15.478 32.883)"><path class="a" d="M207.384,212.96c-4.236-9.451,2.434-23.688,9.567-31.67,8.327-9.319,13.943-6.373,19.855-14.124,11.009-14.434-3.943-30.568,6-46,8.132-12.618,21.211-6.624,29.579-21.007,6.039-10.379,2.132-18.489,10.367-25.791.7-.625,8.391-7.247,16.6-5,8.287,2.27,12.262,12.251,13.187,18.944,1.71,12.37-6.741,15.35-10.095,30.759-4.566,20.979,8.4,27.874,1.841,42.626-5.413,12.183-15.5,10.29-21.234,23.917-5.325,12.653,1.439,18.883-2.958,27.052C269.985,231.46,216.025,232.236,207.384,212.96Z" transform="translate(-206.06 -68.903)"/><g class="e"><g transform="translate(6.669 -4.94)"><path class="f" d="M215.141,227.357h-.224a.2.2,0,0,1,0-.4h.223a61,61,0,0,0,25.764-5.593c7.677-3.544,15.614-7.208,19.818-15.09,3.177-5.955,2.3-10.7,1.2-16.7-1.078-5.858-2.42-13.148-.073-23.811,1.34-6.088,3.007-13.665,9.142-20.339a26.741,26.741,0,0,1,9.632-6.677c2.962-1.362,5.3-2.439,6.966-5.819,2.721-5.524,1.888-10.625.923-16.531a62.423,62.423,0,0,1-1.124-11.828c.254-12.38,7.482-24.927,21.482-37.3a.2.2,0,0,1,.262.3c-13.914,12.292-21.1,24.743-21.348,37.007a62.064,62.064,0,0,0,1.118,11.757c.976,5.973,1.819,11.132-.957,16.769-1.727,3.506-4.243,4.665-7.156,6a26.4,26.4,0,0,0-9.506,6.585c-6.062,6.6-7.717,14.115-9.047,20.157-2.33,10.584-1,17.831.076,23.653,1.119,6.081,2,10.883-1.239,16.961-4.266,8-12.266,11.691-20,15.262A61.39,61.39,0,0,1,215.141,227.357Z" transform="translate(-214.72 -63.577)"/><path class="f" d="M283.051,158.251a.2.2,0,0,1-.189-.138c-5.489-17.314-5.238-30.226-4.06-38.009,1.278-8.449,3.9-12.864,3.927-12.908a.2.2,0,0,1,.338.2c-.026.043-2.614,4.409-3.878,12.79-1.167,7.737-1.412,20.577,4.051,37.8a.2.2,0,0,1-.129.249A.2.2,0,0,1,283.051,158.251Z" transform="translate(-229.293 -72.744)"/><path class="f" d="M274.5,194.439a.2.2,0,0,1-.029-.394c21.556-3.268,33.191-14.25,39.155-22.888a48.637,48.637,0,0,0,7.858-18.127.2.2,0,0,1,.391.06,49.106,49.106,0,0,1-7.924,18.292c-6.008,8.7-17.726,19.764-39.421,23.054Z" transform="translate(-228.417 -83.263)"/><path class="f" d="M254.385,246.114a.2.2,0,0,1-.145-.062c-14.209-15.226-17.751-29.718-18.219-39.2-.508-10.279,2.391-17.05,2.42-17.117a.2.2,0,1,1,.363.158c-.029.066-2.9,6.769-2.387,16.961.47,9.405,3.993,23.794,18.112,38.923a.2.2,0,0,1-.144.333Z" transform="translate(-219.603 -91.713)"/><path class="f" d="M309.87,101.608a.2.2,0,0,1-.057-.387c15.861-4.756,23.5-14.983,27.124-22.725a43.521,43.521,0,0,0,4.1-15.814.2.2,0,0,1,.2-.194h0a.2.2,0,0,1,.194.2A43.964,43.964,0,0,1,337.3,78.664c-3.653,7.815-11.367,18.138-27.368,22.936A.186.186,0,0,1,309.87,101.608Z" transform="translate(-236.548 -62.488)"/></g></g></g><g transform="translate(67.611 73.489)"><g transform="translate(0 0)"><path class="b" d="M274.726,227.157c-3.1-6.923,1.783-17.352,7.007-23.2,6.1-6.827,10.214-4.668,14.545-10.347,8.065-10.572-2.889-22.392,4.4-33.7,5.957-9.244,15.537-4.852,21.668-15.389,4.424-7.6,1.563-13.544,7.594-18.893.515-.457,6.147-5.308,12.163-3.661,6.071,1.663,8.982,8.975,9.66,13.878,1.253,9.063-4.938,11.245-7.395,22.533-3.345,15.368,6.151,20.419,1.349,31.225-3.965,8.924-11.355,7.538-15.554,17.52-3.9,9.269,1.054,13.832-2.167,19.817C320.582,240.71,281.056,241.278,274.726,227.157Z" transform="translate(-273.756 -121.63)"/><g class="g"><g transform="translate(4.832 -3.672)"><path class="f" d="M280.394,237.742h-.167a.2.2,0,0,1,0-.4,1.493,1.493,0,0,0,.166,0,44.629,44.629,0,0,0,18.848-4.092c5.616-2.593,11.422-5.273,14.493-11.03,2.319-4.347,1.68-7.813.872-12.2a39.88,39.88,0,0,1-.053-17.462c.983-4.466,2.206-10.024,6.71-14.924a19.63,19.63,0,0,1,7.073-4.9c2.16-.993,3.866-1.779,5.077-4.238,1.985-4.032,1.376-7.76.672-12.077a45.715,45.715,0,0,1-.824-8.675c.186-9.084,5.486-18.288,15.754-27.358a.2.2,0,1,1,.262.3c-10.181,9-15.436,18.1-15.62,27.071a45.472,45.472,0,0,0,.819,8.6c.716,4.384,1.335,8.171-.706,12.316-1.273,2.585-3.124,3.436-5.268,4.423a19.3,19.3,0,0,0-6.946,4.811c-4.431,4.822-5.643,10.322-6.615,14.742A39.513,39.513,0,0,0,315,209.95c.822,4.464,1.47,7.991-.913,12.46-3.134,5.874-9,8.583-14.675,11.2A45.032,45.032,0,0,1,280.394,237.742Z" transform="translate(-280.03 -117.66)"/><path class="f" d="M330.144,187.118a.2.2,0,0,1-.189-.138c-7.707-24.3-.169-37.214-.093-37.342a.2.2,0,1,1,.339.2c-.076.126-7.516,12.9.131,37.017a.2.2,0,0,1-.129.249A.2.2,0,0,1,330.144,187.118Z" transform="translate(-290.71 -124.375)"/><path class="f" d="M323.876,213.627a.2.2,0,0,1-.029-.393c15.762-2.39,24.273-10.417,28.637-16.729a35.624,35.624,0,0,0,5.757-13.271.2.2,0,0,1,.391.059,36.029,36.029,0,0,1-5.813,13.422c-4.408,6.383-13,14.5-28.913,16.91A.132.132,0,0,1,323.876,213.627Z" transform="translate(-290.064 -132.081)"/><path class="f" d="M309.14,251.481a.2.2,0,0,1-.145-.062c-10.42-11.165-13.017-21.8-13.361-28.746a30.592,30.592,0,0,1,1.778-12.562.2.2,0,0,1,.362.159,30.222,30.222,0,0,0-1.744,12.407c.345,6.879,2.924,17.4,13.254,28.473a.2.2,0,0,1-.144.333Z" transform="translate(-283.607 -138.271)"/><path class="f" d="M349.785,145.625a.2.2,0,0,1-.057-.387c11.593-3.476,17.182-10.948,19.83-16.6a31.853,31.853,0,0,0,3-11.578.2.2,0,0,1,.2-.194h0a.2.2,0,0,1,.195.2,32.294,32.294,0,0,1-3.034,11.724c-2.681,5.734-8.341,13.308-20.082,16.829A.2.2,0,0,1,349.785,145.625Z" transform="translate(-296.02 -116.862)"/></g></g></g></g><path class="c" d="M199.12,214.289c-9.875-5.54-13.835-18.977-13.064-29.21,1.191-15.793,13.137-17.058,16.387-33.815,3.458-17.819-8.784-22.913-4.782-39.731,3.666-15.4,14.43-13.212,21.219-31.094,6.826-17.982-1.456-26.6,7.865-40.782,1.777-2.7,9.083-13.821,19.714-13.442,8.895.317,16.065,8.536,18.644,15.917,2.917,8.347-1.261,12.121-2.43,26.191-1.6,19.221,5.532,20.209,2.81,33.085-3.637,17.209-16.967,19.422-16.926,33.522.027,9.483,6.576,10.218,9.2,21.61,3.747,16.28-5.047,34.673-17.082,45.562C239.093,203.532,216.106,223.819,199.12,214.289Z" transform="translate(-185.962 -26.205)"/><g class="h"><g transform="translate(5.323 -6.624)"><path class="f" d="M210.182,218.529a.2.2,0,0,1-.129-.348c13.1-11.216,20.241-23.188,21.235-35.585.471-5.868-.638-9.519-1.923-13.748a64.468,64.468,0,0,1-3.183-17.375c-.846-16.37,2.092-30.795,8.729-42.872A48.988,48.988,0,0,1,244.63,96c3.074-3.02,5.5-5.4,7-11.142,1.744-6.69.358-11.428-1.245-16.913a53.045,53.045,0,0,1-2.746-17.274c.216-10.858,3.169-21.948,8.779-32.96a.2.2,0,0,1,.353.179c-5.583,10.959-8.521,21.991-8.735,32.789a52.706,52.706,0,0,0,2.73,17.154c1.62,5.543,3.02,10.329,1.248,17.124-1.523,5.843-3.985,8.263-7.1,11.325a48.01,48.01,0,0,0-9.649,12.508c-6.6,12.012-9.523,26.365-8.682,42.662a64.116,64.116,0,0,0,3.168,17.28c1.3,4.266,2.414,7.952,1.938,13.895-1,12.5-8.193,24.568-21.372,35.854A.2.2,0,0,1,210.182,218.529Z" transform="translate(-196.807 -17.604)"/><path class="f" d="M257.684,78.816a.2.2,0,0,1-.1-.03c-11.659-7.187-17.873-19.479-21.032-28.525a80.867,80.867,0,0,1-4.1-18.081.2.2,0,0,1,.182-.213.2.2,0,0,1,.213.182,80.488,80.488,0,0,0,4.086,17.991c3.138,8.983,9.305,21.185,20.863,28.31a.2.2,0,0,1-.1.367Z" transform="translate(-201.97 -20.906)"/><path class="f" d="M243.619,129.539c-.95,0-1.918-.035-2.914-.105a.2.2,0,0,1-.183-.211.2.2,0,0,1,.211-.183,34.12,34.12,0,0,0,19.828-4.266,38.405,38.405,0,0,0,12.278-11.634,56.366,56.366,0,0,0,8-17.647.2.2,0,0,1,.236-.15.2.2,0,0,1,.15.236,56.848,56.848,0,0,1-8.061,17.785C267.957,120.884,258.685,129.539,243.619,129.539Z" transform="translate(-203.827 -35.473)"/><path class="f" d="M226.739,150.514a.2.2,0,0,1-.1-.025c-13.509-7.69-17.6-19-18.645-27.136a42.7,42.7,0,0,1,.971-15.965.2.2,0,0,1,.246-.132.2.2,0,0,1,.132.246,42.314,42.314,0,0,0-.955,15.816c1.04,8.041,5.085,19.222,18.447,26.827a.2.2,0,0,1-.1.37Z" transform="translate(-196.272 -38.211)"/><path class="f" d="M237.882,215.236a.2.2,0,0,1-.015-.394c15.311-1.213,24.332-10.561,29.2-18.191a54.538,54.538,0,0,0,6.983-16.465.2.2,0,0,1,.388.079,54.988,54.988,0,0,1-7.031,16.588c-4.92,7.71-14.032,17.157-29.511,18.384Z" transform="translate(-203.175 -54.942)"/><path class="f" d="M219.122,248.095a.221.221,0,0,1-.05-.006c-7.353-1.9-17.272-7.479-22.772-23.308a65.287,65.287,0,0,1-3.426-18.288.2.2,0,0,1,.4,0,64.82,64.82,0,0,0,3.408,18.172c3,8.642,9.345,19.653,22.494,23.044a.2.2,0,0,1-.049.39Z" transform="translate(-192.874 -60.98)"/></g></g></g><g transform="translate(33.255 39.894)"><path class="i" d="M236.379,263.571l-173.608,12.8L35.621,43.98l176.064,8.213Z" transform="translate(-35.621 -43.98)"/><path class="j" d="M69.692,272.238a.333.333,0,0,1-.319-.309L43.652,51.757a.377.377,0,0,1,.082-.284.312.312,0,0,1,.25-.114l165.325,7.224a.335.335,0,0,1,.306.308L233.144,260.3a.384.384,0,0,1-.071.27.316.316,0,0,1-.227.128L69.713,272.237ZM44.338,52.082,69.973,271.51l162.49-11.491L209.011,59.277Z" transform="translate(-37.467 -45.676)"/><g transform="translate(28.357 51.772)"><g transform="translate(0)"><g transform="translate(14.585 42.766)"><g transform="translate(0 0.245)"><path class="k" d="M120.587,181c-.874.011-1.724-.95-1.931-2.213-.216-1.318.349-2.466,1.261-2.563a15.874,15.874,0,0,0,12.493-8.3,1.3,1.3,0,0,1,2.283-.337,3.255,3.255,0,0,1,.615,3.337A18.592,18.592,0,0,1,120.7,180.994C120.661,181,120.624,181,120.587,181Z" transform="translate(-97.64 -167.055)"/><path class="l" d="M116.3,180.9c.347,6.491-4.889,11.15-11.74,10.4-6.9-.759-12.813-6.71-13.16-13.286s5-11.211,11.9-10.369C110.15,168.475,115.949,174.407,116.3,180.9Z" transform="translate(-91.381 -167.166)"/></g><g transform="translate(81.584)"><path class="m" d="M213.883,179.98c.8-.01,1.372-.947,1.285-2.16-.092-1.265-.863-2.351-1.721-2.427-8.629-.761-13.453-7.75-13.5-7.821-.665-.982-1.669-1.118-2.242-.3a3.11,3.11,0,0,0,.168,3.259c.239.352,5.935,8.593,15.907,9.447A.961.961,0,0,0,213.883,179.98Z" transform="translate(-197.318 -166.737)"/><path class="n" d="M216.356,179.85a11.574,11.574,0,0,0,12.955,9.567,10.853,10.853,0,0,0,8.822-12.842,11.588,11.588,0,0,0-12.822-9.6A10.84,10.84,0,0,0,216.356,179.85Z" transform="translate(-201.652 -166.768)"/></g></g><path class="o" d="M188.722,134.615c-4.906-15.018-19.752-21.435-30.787-23.127a54.551,54.551,0,0,0-9-.161c-10.918,1.325-25,7.45-26.556,22.926-1.339,13.346,7.025,29.964,16.69,35.443,4.915,2.787,8.017,1.467,11.276,5.67.981,1.266,2.257,3.394,5.318,20.849,1.3,7.4,1.794,11.153,4.418,13.25a7.611,7.611,0,0,0,4.145,1.548c.037.026,1.544,0,1.658-.012a.228.228,0,0,0,.133-.053,6.383,6.383,0,0,0,3.724-1.824c2.085-2.246,1.7-5.976,1.261-13.339-1.038-17.348-.284-19.491.381-20.771,2.2-4.233,5.493-3.028,9.564-5.886C188.84,163.59,192.925,147.48,188.722,134.615Z" transform="translate(-83.89 -111.206)"/><path class="p" d="M217.1,163.165c-.309-1.2-1.178-1.958-1.942-1.7a7.352,7.352,0,0,1-3.166.189c-2.358-.38-4.437-3.4-4.8-6.914l0-.045c-.219-2.2-.334-4.44-.43-6.747-.048-1.156-.086-2.325-.153-3.57-.033-.618-.078-1.275-.149-1.979-.1-.742-.179-1.492-.351-2.229a23.563,23.563,0,0,0-1.321-4.295c-.3-.658-.584-1.351-.936-1.951l-.511-.926c-.181-.289-.367-.569-.553-.853a20.237,20.237,0,0,0-4.978-5.24,22.546,22.546,0,0,0-5.288-2.826c-.439-.16-.875-.286-1.312-.429l-.657-.208-.651-.156-1.3-.3c-.455-.077-.961-.137-1.426-.173a17.32,17.32,0,0,0-5.2.627,28.668,28.668,0,0,0-4.721,1.7c-1.523.687-3.014,1.437-4.473,2.266s-2.889,1.737-4.3,2.67-2.8,1.951-4.179,2.98c-1.529,1.168-3.032,2.374-4.512,3.647a4.42,4.42,0,0,1-5.11.536,23.526,23.526,0,0,0-10.465-2.437,20.282,20.282,0,0,0-10.018,2.33,4.917,4.917,0,0,1-5.389-.6c-1.843-1.316-3.7-2.567-5.58-3.785-1.7-1.077-3.4-2.138-5.127-3.134s-3.471-1.95-5.236-2.847-3.558-1.708-5.372-2.461a40.767,40.767,0,0,0-5.559-1.9,21.91,21.91,0,0,0-5.879-.806c-.506.023-1.051.072-1.536.141l-1.371.283-.685.146-.681.2c-.453.139-.908.26-1.358.418a18.679,18.679,0,0,0-5.232,2.866,15.147,15.147,0,0,0-4.31,5.49c-.139.3-.28.6-.411.9l-.345.983a18.067,18.067,0,0,0-.565,2.076,20.673,20.673,0,0,0-.4,4.589c-.005.79.1,1.593.176,2.388.1.755.221,1.458.344,2.121.246,1.333.506,2.585.752,3.823.491,2.47.94,4.865,1.261,7.221l.007.049c.505,3.758-1.087,7.014-3.7,7.47a9.628,9.628,0,0,1-3.736-.141c-.959-.265-1.772.571-1.817,1.87a2.842,2.842,0,0,0,1.649,2.84,11.791,11.791,0,0,0,3.084.363c.176,0,.357-.008.541-.018,1.087-.063,1.811,1.895,1.029,2.8a6.018,6.018,0,0,1-1.194,1.121l-.018.011a1.9,1.9,0,0,0-.607,2.029c.27,1.145,1.144,1.768,1.838,1.466a10.009,10.009,0,0,0,2.636-1.563,10.44,10.44,0,0,0,2.208-2.614,15.135,15.135,0,0,0,1.5-3.507,23.719,23.719,0,0,0,.764-3.959,32.2,32.2,0,0,0,.2-4.077c-.009-1.358-.069-2.715-.179-4.052s-.25-2.666-.416-3.978-.37-2.605-.569-3.878-.4-2.524-.57-3.7c-.085-.593-.153-1.149-.2-1.653-.01-.46-.069-.924-.034-1.371a11.552,11.552,0,0,1,.316-2.6,10.251,10.251,0,0,1,.379-1.19l.223-.575.28-.535a10.39,10.39,0,0,1,3.065-3.513,14.711,14.711,0,0,1,4.163-2.089c.376-.116.766-.2,1.147-.308l.574-.152.594-.1,1.186-.2c.375-.041.7-.07,1.064-.089a18.045,18.045,0,0,1,4.739.7,62.873,62.873,0,0,1,10.083,3.845c5.181,2.413,10.365,5.235,15.482,8.17a6.652,6.652,0,0,1,2.756,3.672c2.172,6.39,8.6,22.92,14.788,27.014a5.355,5.355,0,0,1,2.059,4.464,206.813,206.813,0,0,0,1.309,24.831c1.426,12.158,3.065,11.7,5.141,11.624s3.792.259,2.372-11.849a214.3,214.3,0,0,0-4.491-24.694,4.447,4.447,0,0,1,.99-4.47c5.467-4.465,7.134-20.859,8.028-27.209a4.267,4.267,0,0,1,1.621-3.014,145.351,145.351,0,0,1,13.269-8.1,43.919,43.919,0,0,1,8.488-3.554,14.176,14.176,0,0,1,4.172-.588c.336.024.636.057.986.1l1.117.215.559.108.551.155c.367.106.737.194,1.1.311a17.31,17.31,0,0,1,4.178,2.042,13.757,13.757,0,0,1,3.476,3.35l.361.506.32.543c.233.347.39.749.588,1.121a13.357,13.357,0,0,1,.833,2.444c.126.419.173.855.263,1.287.067.471.126.993.177,1.549.1,1.106.192,2.283.288,3.474s.2,2.408.327,3.639.291,2.477.482,3.733.425,2.525.706,3.8a35.425,35.425,0,0,0,1.046,3.813,27.679,27.679,0,0,0,1.51,3.687,18.673,18.673,0,0,0,2.055,3.239,12.869,12.869,0,0,0,2.468,2.379,11.029,11.029,0,0,0,2.6,1.382c.661.261,1.281-.34,1.271-1.407a2.226,2.226,0,0,0-.947-1.861l-.017-.009a7.224,7.224,0,0,1-1.263-1.011c-.865-.824-.652-2.656.3-2.619.161.006.318.008.47.007a8.629,8.629,0,0,0,2.569-.4C217.047,165.549,217.411,164.363,217.1,163.165Z" transform="translate(-72.442 -113.594)"/></g><path class="q" d="M101.78,171.029a3.483,3.483,0,0,0-4.407,1.818c-1.756,3,4.2,3.537,5.732,2.333S103.453,171.018,101.78,171.029Z" transform="translate(-78.1 -124.906)"/><path class="r" d="M93.7,119.323c-1.677.323-2.387,1.154-3.8,3.516s1.476,1.8,4.353,1.241,5.241-1.715,6.076-1.705S99.435,118.22,93.7,119.323Z" transform="translate(-76.373 -113.029)"/><path class="s" d="M105.044,120.289c-1.337-.25-2.158,2.93,1.944,2.39C109.178,122.39,108.442,120.926,105.044,120.289Z" transform="translate(-79.686 -113.291)"/><path class="t" d="M159.94,136.087s-5.194-.039-5.723,2.278,3.941,2.922,6.732,2.935S162.326,136.105,159.94,136.087Z" transform="translate(-91.231 -116.926)"/><path class="u" d="M167.572,137.634c-1.586-.011-2.575,1.716.338,2.888S170.737,137.656,167.572,137.634Z" transform="translate(-93.96 -117.281)"/><path class="v" d="M166.843,142.876s2.772.014,4.161,1.749S163.207,145.753,166.843,142.876Z" transform="translate(-93.946 -118.486)"/><path class="w" d="M199.914,127.5c-2.551.613-3.447,5.045-2.739,6.236,1.073,1.8,7.19-1.5,6.85-3.919C203.837,128.482,201.636,127.087,199.914,127.5Z" transform="translate(-101.062 -114.935)"/><path class="x" d="M205.544,125.346a3.012,3.012,0,0,0-1.519,3.389c.679,1.576,4.852,1.027,4.916-.515C208.983,127.171,207.168,124.775,205.544,125.346Z" transform="translate(-102.664 -114.437)"/><path class="y" d="M181.78,155.625c-1.59-.175-3,9.338-1.466,10.934.863.9,2.9-.471,3.583-2.9C184.869,160.229,182.835,155.742,181.78,155.625Z" transform="translate(-97.088 -121.417)"/><path class="z" d="M182.9,149.655c-1.3.322-1.6,5.66-.367,6.893.887.889,3.088.167,3.251-2.3C185.947,151.726,183.85,149.42,182.9,149.655Z" transform="translate(-97.57 -120.041)"/><path class="aa" d="M226.783,131.779c-3.765-1.246-5.654-1.871-5.8-1.183-.164.79,1.586,3.177,3.488,3.975,2.481,1.042,4.845-.778,4.7-1.647C229.132,132.7,228.914,132.484,226.783,131.779Z" transform="translate(-106.588 -115.598)"/><path class="ab" d="M234.5,134.822c-.131-2.113-2.626-4.071-3.594-3.326-1.043.8-.648,4.993.7,5.941C232.746,138.241,234.623,136.747,234.5,134.822Z" transform="translate(-108.735 -115.833)"/><path class="ac" d="M106.566,169.844c-1.017-1.584-3.432-.5-3.423.433.009,1.027,2.991,3.062,3.712,2.029A2.765,2.765,0,0,0,106.566,169.844Z" transform="translate(-79.5 -124.501)"/><path class="ad" d="M114.994,195.851a3.164,3.164,0,0,0-.253-2.679c-1.164-1.355-4.755,1.3-4.478,2.54C110.513,196.834,114.2,198.027,114.994,195.851Z" transform="translate(-81.133 -129.962)"/><path class="ae" d="M94.5,188.8c.1-.841.647-1.647,1.3-1.647.89,0,1.3,1.476,3.04,3.49,1.789,2.072,2.912,2.313,2.883,2.9-.041.819-2.3,1.339-4.286.037C96.074,192.68,94.3,190.563,94.5,188.8Z" transform="translate(-77.51 -128.665)"/></g><path class="af" d="M68.982,264.628a.336.336,0,0,1-.32-.34.342.342,0,0,1,.309-.367l163.686-6.859a.336.336,0,0,1,.333.34.342.342,0,0,1-.309.367L68.995,264.628Z" transform="translate(-43.217 -92.964)"/><g transform="translate(30.342 22.797)"><path class="ag" d="M163.535,274.634l-48,2.286-.364-3.113L163.18,271.6Z" transform="translate(-84.251 -119.102)"/><path class="ag" d="M199.213,84.488,75.954,81.538l-.934-7.957L198.3,76.735Z" transform="translate(-75.02 -73.582)"/><path class="ag" d="M164.356,281.617l-47.982,2.427-.364-3.113L164,278.583Z" transform="translate(-84.443 -120.708)"/><path class="ag" d="M165.176,288.6l-47.966,2.567-.364-3.113,47.975-2.488Z" transform="translate(-84.636 -122.313)"/><path class="ag" d="M166,295.583l-47.949,2.708-.364-3.113,47.958-2.629Z" transform="translate(-84.828 -123.918)"/><path class="ag" d="M159.756,309.55l-74.319,4.636-.369-3.157,74.333-4.513Z" transform="translate(-77.33 -127.129)"/><path class="ag" d="M160.579,316.533l-74.293,4.854-.369-3.157,74.308-4.731Z" transform="translate(-77.525 -128.734)"/><path class="ag" d="M83.18,295.629l23.068-1.3-2.318-19.845-23.1,1.06Z" transform="translate(-76.357 -119.765)"/><g transform="translate(86.165 149.022)"><path class="ag" d="M255.592,270l-68.334,3.255-.353-3.022,68.347-3.142Z" transform="translate(-186.906 -267.088)"/><path class="ag" d="M256.381,276.693l-68.31,3.455-.353-3.022,68.323-3.342Z" transform="translate(-187.092 -268.627)"/><path class="ag" d="M257.171,283.389l-68.287,3.655-.353-3.022,68.3-3.542Z" transform="translate(-187.279 -270.166)"/><path class="ag" d="M257.96,290.085,189.7,293.94l-.353-3.022,68.277-3.742Z" transform="translate(-187.466 -271.706)"/><path class="ag" d="M259.538,303.477l-68.217,4.255-.353-3.022,68.23-4.142Z" transform="translate(-187.84 -274.784)"/><path class="ag" d="M260.328,310.173l-68.193,4.455-.353-3.022,68.207-4.343Z" transform="translate(-188.026 -276.323)"/></g></g></g><g transform="translate(190.042 156.099)"><path class="ah" d="M291.317,346.822a8.98,8.98,0,0,1,.061,1.967c-.125.494-4.407.85-5.861.678s.866-1.657,1.792-1.935S291.317,346.822,291.317,346.822Z" transform="translate(-249.747 -229.803)"/><path class="ai" d="M290.388,343.592l.452,2.955s1.151.518,1.7.006l.061-3.094Z" transform="translate(-250.974 -229.03)"/><path class="aj" d="M321.525,343.4s-.909.675-.666,1.482a14.185,14.185,0,0,0,3.874,4.961c1.511.919,1.037-.995.6-2.186a22.956,22.956,0,0,0-2-4.257C322.89,342.962,321.525,343.4,321.525,343.4Z" transform="translate(-257.969 -228.972)"/><path class="ak" d="M319.614,339.245c.439,1.224.862,2.231,1.192,2.973a10.6,10.6,0,0,0,1.583,2.793c.394.465,1.328,1.459,1.58,1.293s-.428-1.375-1.746-4.911c-.191-.514-.8-2.149-.8-2.149h-1.814Z" transform="translate(-257.692 -228.061)"/><path class="al" d="M278.626,272.787a76.551,76.551,0,0,0-.165,13.651c.586,7.553,2.1,12.333,3.991,20.386,1.158,4.921,2.717,12.165,4.129,21.224a3.979,3.979,0,0,0,2.531.5,3.853,3.853,0,0,0,1.52-.578c3.7-11.316,2.609-18.328.823-22.7a24.458,24.458,0,0,1-2.179-6.194c-.654-3.787.154-5.9,1.306-14.678.821-6.253.678-7.219.132-8.157C288.531,272.492,281.853,272.565,278.626,272.787Z" transform="translate(-248.179 -212.764)"/><path class="am" d="M246.625,230.511s-.52-2.039-1.385-2.577-2.088-1.113-2.367-1.349-.608.47.2,1.01l.807.541a.791.791,0,0,1-.033.347,1.214,1.214,0,0,1-1.1.695,8.829,8.829,0,0,1-3.2.363c-.047-.014-.227-.072-.3.008-.122.129.1.535.191.678.56.856,2.505,1.228,3.961.558.532-.244.735-.507,1.124-.44.617.1.995.918,1.219,1.591Z" transform="translate(-239.208 -202.152)"/><path class="an" d="M295.294,274.522c2.269,11.716,4.5,17.869,6.18,21.349a58.441,58.441,0,0,1,3.112,7.6,61.743,61.743,0,0,1,1.891,7.237c.782,3.591,2.715,8.835,7.917,15.712a1.976,1.976,0,0,0,1.8.092,1.743,1.743,0,0,0,.729-.756c-.68-6.575-1.461-12.1-2.138-16.365-.142-.894-.769-4.807-1.75-9.977-.384-2.023-.947-4.987-1.622-8.032-.839-3.792-2.127-8.95-4.112-15.13Z" transform="translate(-252.101 -213.182)"/><path class="ao" d="M246.67,227.414l1.769-1.573A8.931,8.931,0,0,0,256.2,228.2c3.03-.641,4.779-3.13,5.9-4.718,3.363-4.771,1.352-8.271,4.973-11.513,1-.9,2.977-1.99,4.267-1.657,3.072.792,4.841,10.032,1.868,17.3-.6,1.467-3.905,9.544-11.4,10.419C255.754,238.735,249.335,234.47,246.67,227.414Z" transform="translate(-240.924 -198.407)"/><path class="ap" d="M291.064,209.872c-1.287-1.189-3.748-2.56-4.983-5.747-.371-.96-1.688-4.358.254-6.958a5.552,5.552,0,0,1,5.181-2.22c1.613.316,1.865,1.44,4.605,3.7a19.386,19.386,0,0,0,4.689,3.08c3.269,1.347,5.233.079,8.515.224,4.032.178,8.715,2.427,10.973,5.7,4.005,5.808-1.8,11.7,2.59,18.5,1.438,2.229,2.146,1.73,5.551,6.045s5.114,6.481,4.811,9.127c-.421,3.674-4.378,7.184-8.1,7.422-3.64.233-5.955-2.631-7.807-1.378-1.319.891-.565,2.625-1.966,4.709-1.806,2.687-5.355,3.222-5.929,3.308-5.321.8-12.5-5.436-15.542-12.829C288.407,229.232,298.059,216.338,291.064,209.872Z" transform="translate(-249.804 -194.873)"/><path class="aq" d="M292.716,305.339a24.454,24.454,0,0,1-2.179-6.194c-.654-3.787.154-5.9,1.306-14.678.821-6.253.679-7.219.133-8.157-1.187-2.037-3.7-2.941-6.267-3.311.034.132.068.263.1.391,1.347,6.149-3.792,9.9-1.474,16.66,1.143,3.332,2.966,4.1,3.391,7.961.4,3.621-1.045,4.376-.737,7.667.461,4.92,3.956,6.11,4.866,9.878.591,2.448.093,6.028-4.223,11.21.072.446.143.894.215,1.349a3.979,3.979,0,0,0,2.531.5,3.854,3.854,0,0,0,1.52-.578C295.6,316.719,294.5,309.707,292.716,305.339Z" transform="translate(-249.441 -212.832)"/><path class="ar" d="M270.653,221.218c-5.541,4.376-4.924,12.769-8.33,13.2-1.04.13-.983-.668-3.465-1.474-3.63-1.181-5.335.012-7.888-.885a7.912,7.912,0,0,1-3.787-3.036l-.513.456c2.665,7.057,9.084,11.322,15.137,10.615,7.5-.875,10.8-8.952,11.4-10.419a22.27,22.27,0,0,0,1.409-10.457A11.553,11.553,0,0,0,270.653,221.218Z" transform="translate(-240.924 -200.468)"/><path class="ao" d="M272.391,212.027c.34-.527,1.419-1.988,6-3.066a26.376,26.376,0,0,1,12-.306,26.8,26.8,0,0,1,13.934,7.984,18.8,18.8,0,0,0-7.382,9.227c-.612,1.689-2.421,7.462.166,12.869,1.49,3.117,4.128,5.456,6.13,7.233,3,2.665,4.56,3.074,5.567,5.462,1.1,2.6-.008,3.868,1.354,5.648,1.462,1.911,3.176,1.023,5.656,2.956,2.54,1.98,1.636,3.61,3.947,5.8,3.359,3.179,7.811,2.146,8.018,3.576.179,1.231-2.986,2.9-5.674,3.578a16.639,16.639,0,0,1-11.348-1.6c-3.824-1.921-3.163-3.164-6.078-4.628-4.881-2.452-8.216.276-19.333.557-6.02.152-9.064.187-10.732-1.85-1.523-1.861-.722-3.9.192-12.7v0c.293-2.937.909-9.087.913-12.591,0-2.071-.716-5.455-2.153-12.223-.086-.4-.863-4.055-1.491-8.94C271.515,214.613,271.6,213.262,272.391,212.027Z" transform="translate(-246.681 -197.913)"/><g class="as" transform="translate(40.943 18.227)"><path class="at" d="M324.515,268.232c-2.311-2.189-1.407-3.818-3.947-5.8-2.48-1.933-4.193-1.044-5.656-2.956-1.362-1.78-.257-3.048-1.354-5.648-1.007-2.387-2.563-2.8-5.567-5.462-2-1.777-4.64-4.116-6.13-7.233-2.588-5.408-.779-11.181-.166-12.869a18.8,18.8,0,0,1,7.382-9.227c-.139-.15-.3-.32-.477-.5-9.489,1.3-15.02,6.786-15.7,8.41-1.582,3.752.922,5.131.987,15.954.031,5.173-.527,7.215,1.151,9.375,1.92,2.47,4.132,1.705,6.908,4.934,2.132,2.481,1.791,4.053,3.783,5.1,2.141,1.124,3.506-.186,5.921.33,4.035.86,4.9,5.513,7.566,8.059,2.017,1.925,5.747,3.271,13.1,1.826a1.03,1.03,0,0,0,.219-.716C332.325,270.378,327.873,271.411,324.515,268.232Z" transform="translate(-292.373 -218.54)"/></g><g transform="translate(31.205 10.186)"><path class="au" d="M280.513,225.149s10.394-13.572,16.3-15.057a25.48,25.48,0,0,0-4.579-1.438,25.753,25.753,0,0,0-10.916.063C280.763,210.506,278.577,218.073,280.513,225.149Z" transform="translate(-279.728 -208.099)"/></g><path class="ao" d="M296.747,228.1c-1.009,2.142,3.626,7.13,8.777,9.5,1.05.483,8.587,3.948,11.946.616,2.776-2.754.984-8.447.345-10.481-3.141-9.982-12.785-15.06-16.827-16.891-3.017,7.543-1.24,10.9-.541,11.952a40.21,40.21,0,0,0,4.934,5.428c1.523,1.427,2.471,2.121,2.343,2.343-.159.277-1.944-.246-8.877-3.621A2.7,2.7,0,0,0,296.747,228.1Z" transform="translate(-252.403 -198.544)"/><path class="av" d="M289.771,201.205s.479,3.825,1.891,4.7,3.694,2.021,3.946,2.332-8.747,1.278-13.206-.973h0c1.47-.307,1.869-.419,1.869-.419a8.247,8.247,0,0,0,1.889-.747,6.433,6.433,0,0,0,2.076-1.921l-.016-2.118Z" transform="translate(-249.138 -196.328)"/><path class="aw" d="M291.342,201.914a2.117,2.117,0,0,1-2.364.737c-1.292-.471-.521-3.81.5-4.191a1.818,1.818,0,0,1,1.39.192,2.011,2.011,0,0,1,.631,2.261c.327-.095.614-.009.686.152.091.206-.186.485-.248.548A1.094,1.094,0,0,1,291.342,201.914Z" transform="translate(-250.493 -195.682)"/><path class="ax" d="M274.317,216.994l12.273,1.15a.626.626,0,0,1,.544.452l4.58,15.993a.627.627,0,0,1-.658.8l-12.374-1.092a.627.627,0,0,1-.549-.457l-4.479-16.05A.628.628,0,0,1,274.317,216.994Z" transform="translate(-247.121 -199.957)"/><path class="ay" d="M297.056,231.1s-4.226-4.324-5.947-4.963-.2,3.923.811,4.566a4.722,4.722,0,0,0,2.187.987l.786.1,1.032.55S297.252,232.181,297.056,231.1Z" transform="translate(-250.96 -202.046)"/><path class="az" d="M282.487,230.828c-.463-2.528.963-4.489-.4-6.859-1.406-2.437-3.874-2.026-5.648-4.034a5.834,5.834,0,0,1-1.32-2.866l-.8-.075a.627.627,0,0,0-.662.793l4.479,16.05a.627.627,0,0,0,.549.457l6.283.554A7.122,7.122,0,0,1,282.487,230.828Z" transform="translate(-247.121 -199.957)"/></g><g transform="translate(139.081 145.708)"><path class="ba" d="M208.335,198.28c-2.306,1.27-3.458,1.9-4.327,1.985-1.7.157-3.864-.724-4.468-2.2-.51-1.244.447-2.028-.212-3.263-.645-1.208-1.829-.966-2.163-2.022-.306-.97.621-1.4.71-3.192.061-1.219-.356-1.261-.283-2.34.086-1.288.808-3.127,2.129-3.546s2.486.849,3.228.25c.519-.42.063-1.134.6-1.809a2.92,2.92,0,0,1,3.724-.176c.965.836.567,2.223,1.205,2.412.776.23,1.355-1.823,2.944-2.092,1.429-.242,2.884,1.1,3.546,2.129a3.9,3.9,0,0,1,.709,2.838c-.2.883-.749,1.171-.6,1.808.169.738.992.738,1.276,1.49.246.65-.113,1.321-.638,2.27a7.993,7.993,0,0,1-2.554,3.05c-.953.641-1.193.446-3.37,1.595C209.119,197.818,209.083,197.868,208.335,198.28Z" transform="translate(-178.569 -181.38)"/><path class="bb" d="M213.606,345.985a9.646,9.646,0,0,0-.373,2.082c.055.545,4.557,1.6,6.131,1.64s-.662-1.9-1.6-2.34S213.606,345.985,213.606,345.985Z" transform="translate(-182.276 -219.22)"/><path class="bc" d="M215.644,343.334l-.132,3.214s-1.169.689-1.821.209l-.432-3.3Z" transform="translate(-182.283 -218.61)"/><path class="bd" d="M216.573,266.234a82.278,82.278,0,0,1,1.8,14.576c.271,8.145-.775,13.434-1.844,22.27-.653,5.4-1.46,13.329-1.893,23.182a4.282,4.282,0,0,1-2.647.832,4.139,4.139,0,0,1-1.7-.437c-5.3-11.658-4.967-19.285-3.576-24.169a26.29,26.29,0,0,0,1.593-6.881c.249-4.127-.866-6.295-3.14-15.538-1.621-6.588-1.584-7.638-1.111-8.705C205.947,267.1,213.1,266.38,216.573,266.234Z" transform="translate(-180.102 -200.887)"/><path class="be" d="M199.462,347.556a9.656,9.656,0,0,0-.373,2.083c.055.545,4.557,1.6,6.131,1.64s-.662-1.9-1.6-2.34S199.462,347.556,199.462,347.556Z" transform="translate(-179.024 -219.581)"/><path class="bf" d="M201.5,344.906l-.131,3.213s-1.169.69-1.822.209l-.432-3.3Z" transform="translate(-179.031 -218.972)"/><path class="bg" d="M202.429,267.806a82.333,82.333,0,0,1,1.8,14.575c.27,8.145-.776,13.435-1.844,22.27-.653,5.4-1.459,13.329-1.892,23.183a4.288,4.288,0,0,1-2.648.831,4.136,4.136,0,0,1-1.694-.437c-5.3-11.658-4.968-19.285-3.576-24.169a26.294,26.294,0,0,0,1.594-6.882c.248-4.127-.867-6.294-3.141-15.537-1.621-6.588-1.584-7.638-1.111-8.705C191.8,268.667,198.952,267.952,202.429,267.806Z" transform="translate(-176.851 -201.248)"/><path class="bh" d="M222.523,218.678c.788-2.536-4.216-6.237-8.562-8.193-4.936-2.22-9.685-1.611-12.853-1.279a29.916,29.916,0,0,0-15.517,6.267c6.112,3.953,7.05,7.68,7.256,9.187.231,1.7-.1,3.265-4.247,11.392-4.068,7.977-4.131,7.22-4.749,9.1-2.447,7.452-.574,16.673,3.482,17.8,2.9.806,5.171-3.012,9.466-2.074,2.61.57,2.356,2.108,5.51,3.263,4.9,1.794,10.1-.23,11.643-.831,2.335-.909,3.516-1.368,4.3-2.529,1.726-2.559-.7-5.245-2.357-11.4-.771-2.856.016-1.291-1.312-9.663h0c.221-2.863-1.16-8.386.508-12.842a12.712,12.712,0,0,1,1.588-3.38C219.037,220.3,221.974,220.449,222.523,218.678Z" transform="translate(-175.271 -187.7)"/><path class="bi" d="M209.45,201.625s-.83,4.063-2.417,4.886-4.13,1.862-4.425,2.175,9.275,2.095,14.244.05h0c-1.551-.451-1.97-.6-1.97-.6a8.816,8.816,0,0,1-1.964-.958,6.907,6.907,0,0,1-2.069-2.231l.193-2.27Z" transform="translate(-179.833 -186.034)"/><path class="bj" d="M210.79,202.395a2.278,2.278,0,0,0,2.475.987c1.425-.4.874-4.043-.194-4.537a1.948,1.948,0,0,0-1.506.09,2.162,2.162,0,0,0-.865,2.373c-.343-.129-.658-.06-.749.108-.115.212.159.534.22.608A1.179,1.179,0,0,0,210.79,202.395Z" transform="translate(-181.516 -185.369)"/><path class="bk" d="M202.355,252.239a8.373,8.373,0,0,0,2.551-.058c.5-.266,1.9-.681,2.4-.947s.266.5-.238.771-1.394.414-1.127.919a9.644,9.644,0,0,0,3.113,2.227c.771.237-1.128.918-1.513.8s-2.046-.21-2.7-.833a4.905,4.905,0,0,0-3.231-1.841Z" transform="translate(-179.605 -197.426)"/><path class="bl" d="M215.784,251.635a8.357,8.357,0,0,1-2.41-.839c-.4-.409-1.6-1.231-2-1.64s-.409.4-.011.807,1.2.822.79,1.221a9.632,9.632,0,0,1-3.647,1.161c-.806-.01.791,1.221,1.194,1.227s2.012.43,2.823.038a4.9,4.9,0,0,1,3.642-.759Z" transform="translate(-181.14 -196.935)"/><path class="bm" d="M207.8,264.952c-1.372-1.264-.646-2.739-2.421-5.245-3.014-4.257-7.26-3.036-8.471-6.052-1.409-3.5,3.663-6.8,2.017-10.892-.892-2.218-2.62-1.86-3.228-4.035-.94-3.365,2.856-5.451,2.017-8.875a6.124,6.124,0,0,0-4.034-4.035,5.641,5.641,0,0,0-1.806-.246,8.656,8.656,0,0,1,.977,2.925c.231,1.7-.1,3.264-4.247,11.392-4.067,7.977-4.131,7.22-4.749,9.1-2.447,7.452-.574,16.673,3.482,17.8,2.9.806,5.171-3.012,9.466-2.074,2.61.57,2.356,2.108,5.51,3.263,4.9,1.794,10.1-.23,11.643-.831,2.335-.909,3.516-1.368,4.3-2.529a3.6,3.6,0,0,0,.316-.575C211.987,266.755,209.139,266.188,207.8,264.952Z" transform="translate(-175.271 -191.539)"/><path class="bn" d="M186.8,214.219a23.239,23.239,0,0,0-10.086,8.068c-1.271,1.874-4.09,6.035-3.631,10.086.735,6.487,9.862,12.562,22.591,13.313l1.211-2.42c-9-5.459-10.481-8.816-10.085-10.893.585-3.073,5.211-3.047,7.261-7.664,1.945-4.378.523-10.564-2.421-11.7C190.4,212.53,189.185,213.086,186.8,214.219Z" transform="translate(-173.036 -188.611)"/><path class="bo" d="M216.58,243.112q.2,1.21.4,2.421c.475.17,8.2,2.8,14.119-2.018,5.973-4.859,4.741-12.939,4.437-14.926-.782-5.125-4.2-12.916-9.278-12.909a7.5,7.5,0,0,0-6.858,5.648c-.94,5.356,7.438,8.524,6.858,13.717C226.026,237.151,224.257,240.1,216.58,243.112Z" transform="translate(-183.046 -189.265)"/></g></g></svg>