<svg xmlns="http://www.w3.org/2000/svg" width="154" height="154" viewBox="0 0 154 154"><defs><style>.a{fill:#fff;}.a,.b{stroke:#1560a0;stroke-width:3px;}.b,.d{fill:none;}.b{stroke-linecap:round;stroke-linejoin:round;}.c{stroke:none;}</style></defs><g transform="translate(-1447 -982)"><g class="a" transform="translate(1447 982)"><circle class="c" cx="77" cy="77" r="77"/><circle class="d" cx="77" cy="77" r="75.5"/></g><g transform="translate(1463.963 998.654)"><g transform="translate(17.196 9.346)"><path class="b" d="M101.047,132.733V121.2c0-11.529-8.953-19.74-20.963-22.71L73.1,96.747a13.975,13.975,0,1,1-27.95,0l-6.987,1.747c-12.01,2.97-20.963,11.18-20.963,22.71v11.53Z" transform="translate(-17.196 -38.401)"/><path class="b" d="M80.042,33.944H59.079A10.512,10.512,0,0,0,48.6,44.425c0,13.507,10.7,24.456,20.963,24.456S90.524,57.932,90.524,44.425A10.512,10.512,0,0,0,80.042,33.944Z" transform="translate(-27.635 -17.523)"/><path class="b" d="M81.775,85V82.436a16.148,16.148,0,0,1-17.469,0V85c0,3.859-2.346,6.987-5.241,6.987,0,7.718,6.257,35.986,13.975,35.986S87.015,99.708,87.015,91.989C84.121,91.989,81.775,88.861,81.775,85Z" transform="translate(-31.115 -33.644)"/><path class="b" d="M90.278,36.248h0A10.512,10.512,0,0,0,79.8,25.767H58.834A10.512,10.512,0,0,0,48.352,36.248h0S43.767,12.315,62.546,11.092c5.23-.34,12.068,4.513,17.978,4.513s9.754-6.26,9.754-6.26Z" transform="translate(-27.389 -9.346)"/></g><g transform="translate(28.154 57.424)"><path class="b" d="M41.8,93.824a24.977,24.977,0,0,0-2.464,10.747,5.813,5.813,0,0,0-5.722,5.8V118h.095v.095h1.906v-.19H33.8v-7.527a5.622,5.622,0,1,1,11.244,0V117.9h-1.81v.19H45.14V118h.095v-7.623a5.813,5.813,0,0,0-5.712-5.8,24.806,24.806,0,0,1,2.446-10.666A25.055,25.055,0,0,1,54.893,81.541l-.075-.175A25.242,25.242,0,0,0,41.8,93.824Z" transform="translate(-33.611 -81.366)"/><path class="b" d="M107.606,93.824A25.238,25.238,0,0,0,94.584,81.366l-.075.175a25.191,25.191,0,0,1,15.375,23.116h.19A24.993,24.993,0,0,0,107.606,93.824Z" transform="translate(-53.856 -81.366)"/></g><circle class="b" cx="4.764" cy="4.764" r="4.764" transform="translate(79.513 80.714)"/></g></g></svg>